<svg width="1254" height="752" viewBox="0 0 1254 752" fill="none" xmlns="http://www.w3.org/2000/svg">
  <g clip-path="url(#clip0_266_133)">
    <mask id="mask0_266_133" style="mask-type:luminance" maskUnits="userSpaceOnUse" x="0" y="0" width="1262" height="777">
      <path d="M-9.15527e-05 -2.314e-05H1261.38V776.448H-9.15527e-05V-2.314e-05Z" fill="white"/>
    </mask>
    <g mask="url(#mask0_266_133)">
      <path d="M713.39 501.884C715.433 506.396 711.813 510.685 715.479 515.497L713.39 517.07V501.884ZM670.198 706.322C666.937 694.281 663.486 684.852 649.903 684.466L655.065 673.564L644.895 669.712L651.645 667.18C638.131 640.922 614.47 679.448 602.286 649.998C607.305 649.069 612.286 648.204 616.523 650.689C621.225 646.193 615.405 639.561 609.426 634.21L618.987 628.585C617.737 623.34 611.674 623.904 608.275 623.049C629.862 622.658 608.507 602.306 613.041 596.212L603.849 602.444C612.222 594.661 611.705 589.13 612.682 578.814L600.719 582.729C602.671 577.226 603.173 565.706 593.669 568.456L607.911 558.341C592.609 557.094 606.935 550.948 591.374 546.764L586.05 556.694C586.762 545.708 594.007 534.236 589.358 524.617C579.395 515.277 573.861 519.245 565.829 507.762C577.991 510.686 598.075 508.665 604.909 515.466C607.097 516.765 609.262 518.117 611.407 519.51C583.681 446.8 548.03 377.752 500.883 342.394C499.069 341.038 498.471 338.58 499.469 336.542C500.461 334.501 502.762 333.45 504.951 334.041C505.886 334.294 528.275 340.548 567.059 369.586C627.527 414.865 683.054 482.03 720.923 533.557L721.57 534.292C721.65 533.998 721.739 533.68 721.823 533.374C721.833 531.664 722.257 530.413 722.938 529.442C723.95 525.985 725.209 521.954 726.75 517.389C725.973 518.006 725.167 518.69 724.321 519.31C725.878 515.869 727.121 514.038 728.159 513.296C732.625 500.569 739.142 484.197 748.534 464.554C746.066 462.132 744.214 459.385 743.899 455.644C746.811 455.393 750.237 456.564 752.883 455.649C754.223 452.958 755.606 450.224 757.05 447.424C753.641 445.308 750.765 448.472 747.498 450.541C750.506 427.845 758.078 399.166 775.322 381.273C774.631 395.188 787.201 382.186 792.155 386.618L800.059 364.292C799.955 367.601 798.925 372.364 797.878 377.846C835.414 320.472 883.01 262.029 939.462 204.08C943.589 199.844 947.769 195.61 951.99 191.378C882.862 78.1464 756.427 -1.66553 622.253 0.026473C419.714 2.57981 246.823 178.386 248.006 380.586C249.214 587.069 418.846 751.977 629.842 751.788C649.187 751.77 668.302 750.112 687.057 746.972C683.818 740.03 680.587 731.977 677.279 722.833C674.451 717.286 672.735 712.077 670.198 706.322Z" fill="white"/>
      <path d="M694.943 741.585C695.513 742.84 696.084 744.044 696.655 745.225C698.544 744.854 700.429 744.464 702.312 744.064C699.668 743.358 697.173 742.522 694.943 741.585Z" fill="white"/>
      <path d="M969.296 242.029C970.924 241.397 972.538 240.747 974.162 240.119C974.786 239.184 975.408 238.261 976.032 237.332C975.612 236.377 975.174 235.431 974.746 234.48C972.183 236.755 970.004 239.18 969.296 242.029Z" fill="white"/>
      <path d="M957.299 283.77C962.708 277.771 967.727 270.913 971.96 262.298C971.76 262.069 971.562 261.83 971.363 261.583C966.675 268.821 961.984 276.229 957.299 283.77Z" fill="white"/>
      <path d="M844.2 348.73L841.758 349.526L855.836 319.876L844.2 348.73ZM946.691 210.216C889.628 268.747 841.658 327.752 804.108 385.591C801.172 390.112 798.348 394.567 795.61 398.967C795.628 399.626 795.647 400.284 795.69 400.939C808.63 401.51 815.267 420.532 826.022 409.26C823.747 401.151 815.727 408.707 816.571 397.81C822.534 396.512 823.836 391.995 826.296 386.94C830.802 390.243 830.143 397.092 835.551 398.639C838.47 391.995 834.702 385.035 831.72 382.402C834.316 382.708 836.406 386.84 841.018 384.112C848.363 375.674 835.198 372.714 832.227 370.08C839.724 368.662 859.148 373.552 851.666 357.564L860.436 373.158C865.491 366.799 856.964 359.575 865.787 353.158C860.79 360.878 859.84 369.664 868.631 370.692C866.108 354.346 892.588 357.723 880.931 340.294L894.44 353.75C907.178 343.702 888.54 341.27 892.936 330.115C891.88 334.906 898.128 335.016 895.95 339.946C901.036 342.515 909.088 335.576 913.62 329.134C919.039 320.579 925.268 313.896 931.742 307.795C934.32 303.386 936.903 299.012 939.494 294.714C946.787 282.612 954.114 270.895 961.436 259.526C959.35 259.719 957.21 259.983 955.223 260.007C945.592 266.096 938.074 275.527 928.776 279.283C934.618 261.828 956.776 246.907 973.408 231.515C968.43 220.696 962.936 210.11 956.974 199.779C953.514 203.256 950.086 206.736 946.691 210.216Z" fill="white"/>
      <path d="M971.972 262.277C971.968 262.285 971.964 262.291 971.961 262.298C973.489 264.055 975.11 265.231 977.581 264.662C980.136 262.685 982.468 260.691 984.645 258.694C983.297 255.033 981.905 251.389 980.441 247.771C977.433 252.29 974.424 256.859 971.41 261.509C971.613 261.742 971.802 261.995 971.972 262.277Z" fill="white"/>
      <path d="M965.413 331.566L963.117 329.423C953.471 339.243 961.814 346.658 957.202 356.995C955.751 353.802 958.637 347.898 952.938 346.188C949.683 348.815 942.285 365.966 930.791 367.242C930.549 375.838 938.749 376.043 935.277 384.792L923.41 381.431C920.745 390.175 914.138 391.711 914.507 403.024L923.219 401.082C911.437 409.572 911.711 424.532 896.361 428.816L899.527 431.344C883.073 445.304 867.934 465.346 854.682 483.506C844.133 507.922 833.637 533.444 823.175 560.16C823.285 562.934 823.713 565.575 824.559 568.039C822.615 566.236 823.002 563.451 822.727 561.31C820.641 566.647 818.554 572.043 816.47 577.474C819.006 582.69 822.131 587.11 815.453 595.019C822.033 602.882 825.826 582.978 828.311 595.378C819.694 603.335 801.717 600.586 809.294 621.972C817.863 623.904 813.911 612.063 820.37 623.376C809.51 624.892 800.653 631.954 793.099 640.486C784.686 663.926 776.283 688.131 767.883 713.178C767.841 713.294 767.798 713.41 767.751 713.526C765.917 717.834 764.117 721.906 762.343 725.758C903.974 669.06 1009.47 526.967 1006.45 372.331C1005.92 345.56 1002.15 319.208 995.565 293.64C982.947 305.12 972.126 317.458 965.413 331.566Z" fill="white"/>
      <path d="M765.407 675.289L770.636 675.753C771.772 672.467 772.91 669.207 774.047 665.949C771.02 669.985 768.175 673.311 765.407 675.289Z" fill="white"/>
      <path d="M756.122 470.857C752.713 478.053 749.665 484.862 746.934 491.271C750.139 487.107 752.43 482.714 761.09 475.885C759.669 473.985 757.935 472.365 756.122 470.857Z" fill="white"/>
      <path d="M756.963 714.634C757.624 713.126 758.293 711.581 758.971 709.99C760.127 706.546 761.283 703.143 762.437 699.729C760.195 702.682 758.321 706.027 757.433 710.465C757.359 711.823 757.197 713.218 756.963 714.634Z" fill="white"/>
      <path d="M739.968 508.538C740.644 507.336 741.847 506.128 743.872 504.897L741.584 504.352C741.027 505.774 740.488 507.17 739.968 508.538Z" fill="white"/>
      <path d="M739.34 510.2C737.555 514.963 735.988 519.403 734.645 523.468C735.543 525.5 736.585 527.021 737.952 527.06C745.208 520.64 738.323 515.419 739.34 510.2Z" fill="white"/>
      <path d="M562.162 377.749C549.973 368.573 539.436 361.724 530.75 356.647C570.389 398.697 600.934 463.333 625.149 529.279C653.02 550.845 676.764 580.141 694.978 611.857C696.413 603.695 699.178 595.905 694.006 590.144L703.198 593.172C699.537 575.273 710.85 553.428 701.801 536.921C706.861 540.573 708.858 538.547 710.022 534.723C672.862 484.641 619.73 421.06 562.162 377.749Z" fill="white"/>
      <path d="M844.2 348.73L855.836 319.876L841.758 349.526L844.2 348.73Z" fill="white"/>
      <path d="M713.39 501.884V517.07L715.479 515.497C711.813 510.685 715.433 506.396 713.39 501.884Z" fill="white"/>
    </g>
  </g>
  <defs>
    <clipPath id="clip0_266_133">
      <rect width="1253.26" height="751.788" fill="white"/>
    </clipPath>
  </defs>
</svg>
