<?xml version="1.0" encoding="UTF-8" standalone="no"?>
<!-- Created with Inkscape (http://www.inkscape.org/) -->
<svg xmlns:inkscape="http://www.inkscape.org/namespaces/inkscape" xmlns:sodipodi="http://sodipodi.sourceforge.net/DTD/sodipodi-0.dtd" xmlns="http://www.w3.org/2000/svg" xmlns:svg="http://www.w3.org/2000/svg" version="1.1" id="svg2" xml:space="preserve" width="1253.2566" height="751.7876" viewBox="0 0 1253.2566 751.7876" sodipodi:docname="3b916f844dac4e21afeb4a2fcba44dc0.ai">
  <metadata>
    <meta name="Producer" content="Online-Convert"/>
  </metadata>
  <defs id="defs6">
    <clipPath clipPathUnits="userSpaceOnUse" id="clipPath20">
      <path d="M 0,582.336 H 946.035 V 0 H 0 Z" id="path18"/>
    </clipPath>
  </defs>
  <sodipodi:namedview id="namedview4" pagecolor="#ffffff" bordercolor="#666666" borderopacity="1.0" inkscape:pageshadow="2" inkscape:pageopacity="0.0" inkscape:pagecheckerboard="0"/>
  <g id="g8" inkscape:groupmode="layer" inkscape:label="3b916f844dac4e21afeb4a2fcba44dc0" transform="matrix(1.3333333,0,0,-1.3333333,-1.0131828e-4,776.44798)">
    <g id="g14">
      <g id="g16" clip-path="url(#clipPath20)">
        <g id="g40" transform="translate(349.0426,205.9234)">
          <path d="M 0,0 C 1.532,-3.384 -1.183,-6.601 1.567,-10.21 L 0,-11.39 Z m -32.394,-153.329 c -2.446,9.031 -5.034,16.103 -15.221,16.392 l 3.871,8.177 -7.627,2.889 5.062,1.899 c -10.135,19.693 -27.881,-9.201 -37.019,12.886 3.764,0.697 7.5,1.346 10.678,-0.518 3.526,3.372 -0.839,8.346 -5.323,12.359 l 7.171,4.219 c -0.938,3.934 -5.485,3.511 -8.034,4.152 16.19,0.293 0.174,15.557 3.574,20.128 l -6.894,-4.674 c 6.28,5.837 5.892,9.985 6.625,17.722 l -8.972,-2.936 c 1.464,4.127 1.84,12.767 -5.288,10.705 l 10.682,7.586 c -11.477,0.935 -0.732,5.545 -12.403,8.683 l -3.993,-7.448 c 0.534,8.24 5.968,16.844 2.481,24.058 -7.472,7.005 -11.623,4.029 -17.647,12.641 9.122,-2.193 24.185,-0.677 29.31,-5.778 1.641,-0.974 3.265,-1.988 4.874,-3.033 -20.795,54.533 -47.533,106.319 -82.893,132.837 -1.361,1.017 -1.809,2.861 -1.061,4.389 0.744,1.531 2.47,2.319 4.112,1.876 0.701,-0.19 17.493,-4.88 46.581,-26.659 C -64.397,65.264 -22.752,14.89 5.65,-23.755 l 0.485,-0.551 c 0.06,0.22 0.127,0.459 0.19,0.688 0.007,1.283 0.325,2.221 0.836,2.949 0.759,2.593 1.703,5.616 2.859,9.04 -0.583,-0.463 -1.187,-0.976 -1.822,-1.441 1.168,2.581 2.1,3.954 2.879,4.511 3.349,9.545 8.237,21.824 15.281,36.556 -1.851,1.817 -3.24,3.877 -3.476,6.683 2.184,0.188 4.753,-0.69 6.738,-0.004 1.005,2.018 2.042,4.069 3.125,6.169 -2.557,1.587 -4.714,-0.786 -7.164,-2.338 2.256,17.022 7.935,38.531 20.868,51.951 -0.518,-10.436 8.909,-0.685 12.625,-4.009 l 5.928,16.745 c -0.078,-2.482 -0.851,-6.054 -1.636,-10.166 28.152,43.031 63.849,86.863 106.188,130.325 3.095,3.177 6.23,6.352 9.396,9.526 -51.846,84.924 -146.672,144.783 -247.303,143.514 -151.904,-1.915 -281.572,-133.77 -280.685,-285.42 0.906,-154.862 128.13,-278.543 286.377,-278.401 14.509,0.013 28.845,1.257 42.911,3.612 -2.429,5.206 -4.852,11.246 -7.333,18.104 -2.121,4.16 -3.408,8.067 -5.311,12.383" style="fill:#ffffff;fill-opacity:1;fill-rule:nonzero;stroke:none" id="path42"/>
        </g>
        <g id="g44" transform="translate(335.2072,26.1475)">
          <path d="m 0,0 c 0.428,-0.941 0.856,-1.844 1.284,-2.73 1.417,0.278 2.831,0.571 4.243,0.871 C 3.544,-1.33 1.673,-0.703 0,0" style="fill:#ffffff;fill-opacity:1;fill-rule:nonzero;stroke:none" id="path46"/>
        </g>
        <g id="g48" transform="translate(540.9724,400.8142)">
          <path d="M 0,0 C 1.221,0.474 2.431,0.962 3.649,1.433 4.117,2.134 4.584,2.826 5.052,3.523 4.737,4.239 4.408,4.949 4.087,5.662 2.165,3.956 0.531,2.137 0,0" style="fill:#ffffff;fill-opacity:1;fill-rule:nonzero;stroke:none" id="path50"/>
        </g>
        <g id="g52" transform="translate(531.9743,369.5086)">
          <path d="m 0,0 c 4.057,4.499 7.821,9.643 10.996,16.104 -0.15,0.172 -0.299,0.351 -0.448,0.536 C 7.032,11.212 3.514,5.656 0,0" style="fill:#ffffff;fill-opacity:1;fill-rule:nonzero;stroke:none" id="path54"/>
        </g>
        <g id="g56" transform="translate(447.1504,320.7889)">
          <path d="M 0,0 -1.832,-0.597 8.727,21.64 Z M 76.868,103.885 C 34.071,59.987 -1.907,15.733 -30.069,-27.646 c -2.202,-3.391 -4.32,-6.732 -6.374,-10.032 0.014,-0.494 0.028,-0.988 0.06,-1.479 9.705,-0.428 14.683,-14.695 22.749,-6.241 -1.706,6.082 -7.721,0.415 -7.088,8.588 4.472,0.973 5.449,4.361 7.294,8.152 3.379,-2.477 2.885,-7.614 6.941,-8.774 2.189,4.983 -0.637,10.203 -2.873,12.178 1.947,-0.23 3.514,-3.329 6.973,-1.283 5.509,6.329 -4.365,8.549 -6.593,10.524 5.623,1.064 20.191,-2.604 14.579,9.387 l 6.578,-11.695 c 3.791,4.769 -2.604,10.187 4.013,15 -3.748,-5.79 -4.46,-12.38 2.133,-13.151 -1.892,12.26 17.968,9.727 9.225,22.799 L 37.68,-3.765 c 9.553,7.536 -4.425,9.36 -1.128,17.726 -0.792,-3.593 3.894,-3.676 2.26,-7.373 3.815,-1.927 9.854,3.277 13.253,8.109 4.064,6.416 8.736,11.428 13.591,16.004 1.934,3.307 3.871,6.587 5.814,9.811 5.47,9.076 10.965,17.864 16.457,26.391 -1.565,-0.145 -3.17,-0.343 -4.66,-0.361 -7.223,-4.567 -12.862,-11.64 -19.835,-14.457 4.381,13.091 21,24.282 33.474,35.826 -3.734,8.114 -7.854,16.054 -12.326,23.802 -2.595,-2.608 -5.166,-5.218 -7.712,-7.828" style="fill:#ffffff;fill-opacity:1;fill-rule:nonzero;stroke:none" id="path58"/>
        </g>
        <g id="g60" transform="translate(542.9788,385.6288)">
          <path d="m 0,0 c -0.003,-0.006 -0.006,-0.011 -0.008,-0.016 1.146,-1.318 2.362,-2.2 4.215,-1.773 1.916,1.483 3.665,2.978 5.298,4.476 C 8.494,5.433 7.45,8.166 6.352,10.879 4.096,7.49 1.839,4.063 -0.421,0.576 -0.269,0.401 -0.127,0.211 0,0" style="fill:#ffffff;fill-opacity:1;fill-rule:nonzero;stroke:none" id="path62"/>
        </g>
        <g id="g64" transform="translate(538.0595,333.662)">
          <path d="m 0,0 -1.722,1.607 c -7.234,-7.365 -0.977,-12.926 -4.436,-20.679 -1.088,2.395 1.076,6.823 -3.198,8.105 -2.441,-1.97 -7.99,-14.833 -16.61,-15.79 -0.182,-6.447 5.968,-6.601 3.364,-13.163 l -8.9,2.521 c -1.999,-6.558 -6.954,-7.71 -6.677,-16.195 l 6.534,1.457 c -8.837,-6.368 -8.631,-17.588 -20.144,-20.801 l 2.375,-1.896 c -12.341,-10.47 -23.695,-25.501 -33.634,-39.121 -7.912,-18.312 -15.784,-37.454 -23.63,-57.491 0.082,-2.08 0.403,-4.061 1.038,-5.909 -1.458,1.352 -1.168,3.441 -1.374,5.047 -1.565,-4.003 -3.13,-8.05 -4.693,-12.123 1.902,-3.912 4.246,-7.227 -0.763,-13.159 4.935,-5.897 7.78,9.031 9.644,-0.269 -6.463,-5.968 -19.946,-3.906 -14.263,-19.946 6.427,-1.449 3.463,7.432 8.307,-1.053 -8.145,-1.137 -14.788,-6.433 -20.453,-12.832 -6.31,-17.58 -12.612,-35.734 -18.912,-54.519 -0.032,-0.087 -0.064,-0.174 -0.099,-0.261 -1.376,-3.231 -2.726,-6.285 -4.056,-9.174 106.223,42.523 185.344,149.093 183.078,265.07 C 30.383,-10.496 27.551,9.268 22.614,28.444 13.151,19.834 5.035,10.581 0,0" style="fill:#ffffff;fill-opacity:1;fill-rule:nonzero;stroke:none" id="path66"/>
        </g>
        <g id="g68" transform="translate(388.0554,75.8691)">
          <path d="M 0,0 3.922,-0.348 C 4.774,2.117 5.627,4.562 6.48,7.005 4.21,3.978 2.076,1.484 0,0" style="fill:#ffffff;fill-opacity:1;fill-rule:nonzero;stroke:none" id="path70"/>
        </g>
        <g id="g72" transform="translate(381.0917,229.1936)">
          <path d="m 0,0 c -2.557,-5.397 -4.843,-10.504 -6.891,-15.311 2.404,3.123 4.122,6.418 10.617,11.54 C 2.66,-2.346 1.36,-1.131 0,0" style="fill:#ffffff;fill-opacity:1;fill-rule:nonzero;stroke:none" id="path74"/>
        </g>
        <g id="g76" transform="translate(381.722,46.3607)">
          <path d="M 0,0 C 0.496,1.131 0.998,2.29 1.506,3.483 2.373,6.066 3.24,8.618 4.106,11.179 2.424,8.964 1.019,6.455 0.353,3.127 0.297,2.108 0.176,1.062 0,0" style="fill:#ffffff;fill-opacity:1;fill-rule:nonzero;stroke:none" id="path78"/>
        </g>
        <g id="g80" transform="translate(368.976,200.9324)">
          <path d="M 0,0 C 0.507,0.902 1.409,1.808 2.928,2.731 L 1.212,3.14 C 0.794,2.073 0.39,1.026 0,0" style="fill:#ffffff;fill-opacity:1;fill-rule:nonzero;stroke:none" id="path82"/>
        </g>
        <g id="g84" transform="translate(368.5051,199.6862)">
          <path d="m 0,0 c -1.339,-3.572 -2.514,-6.902 -3.521,-9.951 0.673,-1.524 1.455,-2.665 2.48,-2.694 C 4.401,-7.83 -0.763,-3.914 0,0" style="fill:#ffffff;fill-opacity:1;fill-rule:nonzero;stroke:none" id="path86"/>
        </g>
        <g id="g88" transform="translate(235.6219,299.0243)">
          <path d="M 0,0 C -9.142,6.882 -17.045,12.019 -23.559,15.827 6.17,-15.711 29.079,-64.188 47.24,-113.647 c 20.903,-16.175 38.711,-38.147 52.372,-61.934 1.076,6.122 3.15,11.964 -0.729,16.285 l 6.894,-2.271 c -2.746,13.424 5.739,29.808 -1.048,42.188 3.795,-2.739 5.293,-1.219 6.166,1.649 C 83.025,-80.169 43.176,-32.483 0,0" style="fill:#ffffff;fill-opacity:1;fill-rule:nonzero;stroke:none" id="path90"/>
        </g>
        <g id="g92" transform="translate(447.1504,320.7889)">
          <path d="M 0,0 8.727,21.64 -1.832,-0.597 Z" style="fill:#ffffff;fill-opacity:1;fill-rule:nonzero;stroke:none" id="path94"/>
        </g>
        <g id="g96" transform="translate(349.0426,205.9234)">
          <path d="m 0,0 v -11.39 l 1.567,1.18 C -1.183,-6.601 1.532,-3.384 0,0" style="fill:#ffffff;fill-opacity:1;fill-rule:nonzero;stroke:none" id="path98"/>
        </g>
      </g>
    </g>
  </g>
</svg>
