<svg width="3348" height="3703" viewBox="0 0 3348 3703" fill="none" xmlns="http://www.w3.org/2000/svg">
<path d="M3288.92 0C1248.8 1459.72 1040.8 2625.28 1040.8 2625.28C416.167 1759 0 1646.71 0 1646.71C329.953 1894.13 540.233 2476.05 689.722 2968.06C810.826 3366.64 893.543 3702.04 1012.07 3702.04C1071.84 3702.04 1140.72 3616.71 1228.2 3411.2C1554 2600.52 1783.5 1943.02 2080.26 1450.65C2662.6 484.466 3288.92 0 3288.92 0Z" fill="#DCE9B6"/>
<path d="M3329.25 733.546L3271.59 812.082L3315.57 770.798C3377.38 793.188 3320.36 841.408 3302.3 857.337C3389.08 824.169 3321.5 773.215 3329.25 733.546Z" fill="#96C121"/>
<path d="M3201.3 810.637C3155.68 814.607 3177.73 854.467 3199.21 864.273C3198.03 845.741 3222.67 820.482 3201.3 810.637Z" fill="#96C121"/>
<path d="M1043.38 2501.37C1056.53 2491.74 1067.6 2478.83 1078.58 2484.54C1070.98 2467.01 1061.74 2460.78 1043.38 2501.37Z" fill="#96C121"/>
<path d="M1078.58 2484.54L1082.91 2495.64L1082.54 2486.53L1078.58 2484.54Z" fill="#96C121"/>
<path d="M1942.92 1951.36C1941.17 1897.86 1972.42 1890.58 1985.04 1849.24L2041.14 1865.13C2057.57 1823.76 2018.79 1822.79 2019.93 1782.11C2074.29 1776.09 2109.3 1694.97 2124.7 1682.54C2151.65 1690.63 2138 1718.56 2144.84 1733.67C2166.66 1684.76 2127.21 1649.69 2172.82 1603.24L2183.69 1613.37C2256.26 1460.87 2430.36 1352.07 2575.3 1235.58C2562.91 1238.68 2560.32 1227.33 2550.94 1220.13C2711.92 1103.31 2935.06 1044.72 3058.37 872.882C2953.27 908.214 2741.23 903.388 2666.76 1025.67C2609.1 1001.42 2575.8 1083.89 2536.42 1043.58C2381.13 1105.35 2360.49 1204.64 2241.25 1296.93C2217.75 1302.35 2210.53 1274.45 2190.38 1257.86C2219.54 1227.51 2244.48 1189.97 2278.42 1164.95C2250.67 1169.73 2226.8 1180.29 2202.05 1189.89C2212.88 1146.29 2296.52 1123.71 2279.14 1078.19C2207.56 1174.4 2045.78 1260.43 2010.39 1366.1C2054.37 1348.33 2089.95 1303.72 2135.49 1274.93C2164.76 1274.58 2201.1 1263.1 2214.71 1285.66C2142.11 1433.49 2020.77 1472.38 1938.74 1601.87C1917.3 1632.36 1879.21 1665.17 1855.15 1653.02C1865.45 1629.7 1835.91 1629.19 1840.89 1606.51C1820.1 1659.27 1908.25 1670.78 1848 1718.31L1784.1 1654.66C1839.26 1737.09 1714 1721.12 1725.94 1798.46C1684.35 1793.57 1688.84 1752.03 1712.49 1715.52C1670.75 1745.87 1711.08 1780.02 1687.17 1810.11L1645.7 1736.36C1681.09 1811.97 1589.21 1788.84 1553.75 1795.55C1567.81 1808.02 1630.07 1822.01 1595.33 1861.9C1573.51 1874.82 1563.63 1855.27 1551.35 1853.82C1565.45 1866.29 1583.28 1899.19 1569.48 1930.63C1543.9 1923.31 1547.02 1890.92 1525.69 1875.3C1514.06 1899.19 1507.9 1920.55 1479.69 1926.7C1475.7 1978.24 1513.64 1942.51 1524.4 1980.86C1473.54 2034.18 1442.14 1944.2 1380.94 1941.5C1376.53 1875.42 1400.48 1803.89 1401.61 1768.18L1364.21 1873.78C1340.79 1852.8 1281.34 1914.3 1284.61 1848.48C1203.04 1933.12 1167.23 2068.77 1153.01 2176.1C1168.52 2166.27 1182.17 2151.2 1198.4 2161.48C1193.84 2218.04 1160.92 2198.11 1135.98 2200.25C1139.78 2245.26 1190.34 2259.97 1217.29 2295.99C1142.6 2354.87 1168.14 2375.48 1084.82 2421.03L1135.87 2433.2C1080.18 2467.01 1153.7 2497.46 1107.85 2538.02C1096.22 2537.69 1089.53 2514.7 1082.92 2495.63C1084.93 2544.97 1026.85 2524.43 1031.82 2573.88L987.049 2523C976.06 2558.94 980.319 2616.02 936.87 2584.66C979.672 2662.74 926.15 2766.06 943.484 2850.73L899.996 2836.38C924.476 2863.64 911.401 2900.49 904.597 2939.09C798.272 2753.95 652.116 2586.24 478.587 2483.18C446.275 2451.01 351.278 2460.59 293.766 2446.75C331.741 2501.07 357.931 2482.29 405.03 2526.46C427.038 2571.96 392.753 2626.23 389.405 2678.17L414.57 2631.21C488.166 2650.99 420.424 2680.09 492.802 2685.96L425.442 2733.82C470.373 2720.82 468.018 2775.29 458.781 2801.32L515.344 2782.82C510.743 2831.59 513.175 2857.76 473.569 2894.58L517.052 2865.08C495.616 2893.91 596.615 2990.18 494.51 2992.04C510.59 2996.07 539.255 2993.4 545.183 3018.2L499.948 3044.81C528.228 3070.12 555.751 3101.48 533.513 3122.77C513.478 3111.01 489.913 3115.09 466.192 3119.48C523.821 3258.78 635.731 3076.57 699.631 3200.75L667.736 3212.73L715.824 3230.96L691.418 3282.5C755.66 3284.33 771.97 3328.93 787.404 3385.88C807.513 3431.51 816.598 3469.85 858.108 3520.71C884.41 3562.28 1041.56 3603.75 1114.77 3547.89C1191.06 3498.72 1167.23 3499 1180.15 3483.44C1191.56 3457.23 1198.63 3430.14 1200 3405.47C1214.1 3334.96 1280.73 3322.59 1290.31 3243.77L1237.7 3239.11C1299.13 3195.2 1368.54 3011.58 1497.67 2993.59C1467.11 2940.06 1485.81 2996.07 1445.29 2986.95C1409.45 2885.78 1494.48 2898.78 1535.23 2861.15C1523.48 2802.49 1505.54 2896.63 1474.41 2859.45C1534.51 2788.29 1426.78 2776.85 1489.65 2685.59C1521.43 2684.1 1500.41 2716.01 1517.48 2731.84C1489.27 2649.77 1556.79 2526.88 1590.16 2427.13C1667.1 2325.39 1763.57 2177.35 1872.06 2085.3L1857.08 2073.35C1929.69 2053.08 1928.4 1982.34 1984.12 1942.16L1942.92 1951.36L1942.92 1951.36Z" fill="#96C121"/>
<path d="M2281.62 1011.84L2246.72 980.974L2193.96 1043.12C2241.09 1057.97 2238.58 1024.88 2281.62 1011.84Z" fill="#96C121"/>
<path d="M2337.27 1133.94L2360.34 1098.25L2307.24 1130.29L2337.27 1133.94Z" fill="#96C121"/>
<path d="M1598.83 1698.34L1610.38 1694.57L1665.43 1558.08L1598.83 1698.34Z" fill="#96C121"/>
<path d="M1001.57 2483.34C984.234 2460.59 1001.34 2440.29 991.684 2418.95V2490.77L1001.57 2483.34Z" fill="#96C121"/>
<path d="M672.147 3082C747.262 3120.11 662.567 3130.13 740.609 3110.57C734.339 3069.98 696.779 3097.61 672.147 3082Z" fill="#96C121"/>
<path d="M763.532 3232.04C769.538 3214.42 759.767 3201.67 749.845 3189.77C709.705 3206.52 750.453 3215.18 763.532 3232.04Z" fill="#96C121"/>
<path d="M641.857 3660.85C615.391 3687.44 583.382 3700.74 545.831 3700.74C508.28 3700.74 476.33 3687.44 449.99 3660.85C423.762 3634.38 410.653 3602.31 410.653 3564.64C410.653 3527.33 423.884 3495.45 450.355 3468.98C476.7 3442.63 508.528 3429.46 545.83 3429.46C583.381 3429.46 615.39 3442.63 641.856 3468.98C668.328 3495.32 681.564 3527.21 681.564 3564.64C681.564 3602.07 668.329 3634.26 641.857 3660.85ZM463.47 3482.27C440.813 3505.05 429.49 3532.57 429.49 3564.82C429.49 3597.33 440.755 3625.02 463.284 3647.92C485.935 3670.82 513.451 3682.27 545.831 3682.27C578.211 3682.27 605.726 3670.82 628.378 3647.92C651.029 3625.02 662.358 3597.33 662.358 3564.82C662.358 3532.57 651.03 3505.05 628.378 3482.27C605.599 3459.38 578.084 3447.93 545.831 3447.93C513.578 3447.93 486.243 3459.38 463.47 3482.27ZM543.245 3489.84C561.711 3489.84 575.254 3491.64 583.874 3495.21C599.261 3501.62 606.955 3514.19 606.955 3532.92C606.955 3546.23 602.112 3556.02 592.432 3562.31C587.287 3565.63 580.118 3568.04 570.925 3569.51C582.561 3571.36 591.075 3576.22 596.469 3584.09C601.858 3591.96 604.555 3599.65 604.555 3607.14V3618.03C604.555 3621.47 604.677 3625.16 604.926 3629.09C605.17 3633.03 605.599 3635.62 606.219 3636.85L607.141 3638.69H582.582C582.455 3638.2 582.333 3637.71 582.211 3637.22C582.089 3636.73 581.962 3636.17 581.84 3635.56L581.289 3630.77V3618.99C581.289 3601.81 576.605 3590.46 567.253 3584.94C561.711 3581.74 551.988 3580.15 538.074 3580.15H517.394V3638.69H491.171V3489.84L543.245 3489.84ZM571.566 3513.3C564.953 3509.61 554.367 3507.76 539.801 3507.76H517.393V3561.68H541.099C552.21 3561.68 560.545 3560.58 566.103 3558.36C576.345 3554.3 581.474 3546.54 581.474 3535.09C581.474 3524.26 578.168 3516.99 571.566 3513.3Z" fill="#96C121"/>
</svg>
