<svg width="50" height="50" viewBox="0 0 50 50" fill="none" xmlns="http://www.w3.org/2000/svg">
    <path d="M6.37256 12.255C6.37256 9.54771 8.56724 7.35303 11.2745 7.35303H37.7451C40.4524 7.35303 42.6471 9.54771 42.6471 12.255V38.7256C42.6471 41.4328 40.4524 43.6275 37.7451 43.6275H11.2745C8.56724 43.6275 6.37256 41.4328 6.37256 38.7256V12.255Z" fill="white"/>
    <mask id="path-2-inside-1_30_2" fill="white">
        <path d="M25.6085 22.2568L26.7068 23.3542C27.2114 23.8587 27.6116 24.4577 27.8847 25.1169C28.1577 25.7761 28.2983 26.4827 28.2983 27.1962C28.2983 27.9096 28.1577 28.6162 27.8847 29.2754C27.6116 29.9346 27.2114 30.5335 26.7068 31.0381L26.4321 31.3121C25.9275 31.8166 25.3285 32.2168 24.6694 32.4898C24.0102 32.7629 23.3036 32.9034 22.5901 32.9034C21.8767 32.9034 21.1701 32.7629 20.5109 32.4898C19.8518 32.2168 19.2527 31.8166 18.7482 31.3121C18.2437 30.8075 17.8435 30.2085 17.5705 29.5493C17.2974 28.8901 17.1569 28.1836 17.1569 27.4701C17.1569 26.7566 17.2974 26.0501 17.5705 25.3909C17.8435 24.7317 18.2437 24.1328 18.7482 23.6282L19.8465 24.7265C19.4835 25.0863 19.1952 25.5141 18.9981 25.9857C18.801 26.4572 18.6989 26.963 18.6978 27.474C18.6967 27.9851 18.7966 28.4913 18.9916 28.9637C19.1867 29.4361 19.473 29.8652 19.8344 30.2266C20.1958 30.588 20.625 30.8744 21.0974 31.0694C21.5697 31.2645 22.076 31.3643 22.5871 31.3632C23.098 31.3622 23.6038 31.2601 24.0754 31.063C24.5469 30.8658 24.9748 30.5776 25.3346 30.2145L25.6093 29.9398C26.3369 29.2121 26.7456 28.2252 26.7456 27.1962C26.7456 26.1671 26.3369 25.1802 25.6093 24.4525L24.5111 23.3542L25.6085 22.2568ZM30.8227 26.9214L29.7252 25.8239C30.4377 25.0931 30.8336 24.1109 30.8271 23.0902C30.8205 22.0695 30.4121 21.0925 29.6903 20.3708C28.9685 19.649 27.9914 19.2408 26.9707 19.2344C25.95 19.228 24.9679 19.624 24.2372 20.3366L23.9624 20.6106C23.2348 21.3383 22.8262 22.3252 22.8262 23.3542C22.8262 24.3832 23.2348 25.3702 23.9624 26.0979L25.0606 27.1962L23.9624 28.2936L22.8649 27.1962C22.3603 26.6917 21.9601 26.0927 21.6871 25.4334C21.4139 24.7743 21.2734 24.0678 21.2734 23.3542C21.2734 22.6407 21.4139 21.9342 21.6871 21.275C21.9601 20.6158 22.3603 20.0169 22.8649 19.5124L23.1396 19.2383C23.6442 18.7338 24.2431 18.3336 24.9024 18.0606C25.5616 17.7875 26.268 17.647 26.9816 17.647C27.6951 17.647 28.4016 17.7875 29.0608 18.0606C29.72 18.3336 30.3189 18.7338 30.8234 19.2383C31.328 19.7429 31.7282 20.3419 32.0013 21.001C32.2743 21.6602 32.4148 22.3668 32.4148 23.0802C32.4148 23.7937 32.2743 24.5003 32.0013 25.1595C31.7282 25.8186 31.328 26.4177 30.8234 26.9222"/>
    </mask>
    <path d="M25.6085 22.2568L26.7068 23.3542C27.2114 23.8587 27.6116 24.4577 27.8847 25.1169C28.1577 25.7761 28.2983 26.4827 28.2983 27.1962C28.2983 27.9096 28.1577 28.6162 27.8847 29.2754C27.6116 29.9346 27.2114 30.5335 26.7068 31.0381L26.4321 31.3121C25.9275 31.8166 25.3285 32.2168 24.6694 32.4898C24.0102 32.7629 23.3036 32.9034 22.5901 32.9034C21.8767 32.9034 21.1701 32.7629 20.5109 32.4898C19.8518 32.2168 19.2527 31.8166 18.7482 31.3121C18.2437 30.8075 17.8435 30.2085 17.5705 29.5493C17.2974 28.8901 17.1569 28.1836 17.1569 27.4701C17.1569 26.7566 17.2974 26.0501 17.5705 25.3909C17.8435 24.7317 18.2437 24.1328 18.7482 23.6282L19.8465 24.7265C19.4835 25.0863 19.1952 25.5141 18.9981 25.9857C18.801 26.4572 18.6989 26.963 18.6978 27.474C18.6967 27.9851 18.7966 28.4913 18.9916 28.9637C19.1867 29.4361 19.473 29.8652 19.8344 30.2266C20.1958 30.588 20.625 30.8744 21.0974 31.0694C21.5697 31.2645 22.076 31.3643 22.5871 31.3632C23.098 31.3622 23.6038 31.2601 24.0754 31.063C24.5469 30.8658 24.9748 30.5776 25.3346 30.2145L25.6093 29.9398C26.3369 29.2121 26.7456 28.2252 26.7456 27.1962C26.7456 26.1671 26.3369 25.1802 25.6093 24.4525L24.5111 23.3542L25.6085 22.2568ZM30.8227 26.9214L29.7252 25.8239C30.4377 25.0931 30.8336 24.1109 30.8271 23.0902C30.8205 22.0695 30.4121 21.0925 29.6903 20.3708C28.9685 19.649 27.9914 19.2408 26.9707 19.2344C25.95 19.228 24.9679 19.624 24.2372 20.3366L23.9624 20.6106C23.2348 21.3383 22.8262 22.3252 22.8262 23.3542C22.8262 24.3832 23.2348 25.3702 23.9624 26.0979L25.0606 27.1962L23.9624 28.2936L22.8649 27.1962C22.3603 26.6917 21.9601 26.0927 21.6871 25.4334C21.4139 24.7743 21.2734 24.0678 21.2734 23.3542C21.2734 22.6407 21.4139 21.9342 21.6871 21.275C21.9601 20.6158 22.3603 20.0169 22.8649 19.5124L23.1396 19.2383C23.6442 18.7338 24.2431 18.3336 24.9024 18.0606C25.5616 17.7875 26.268 17.647 26.9816 17.647C27.6951 17.647 28.4016 17.7875 29.0608 18.0606C29.72 18.3336 30.3189 18.7338 30.8234 19.2383C31.328 19.7429 31.7282 20.3419 32.0013 21.001C32.2743 21.6602 32.4148 22.3668 32.4148 23.0802C32.4148 23.7937 32.2743 24.5003 32.0013 25.1595C31.7282 25.8186 31.328 26.4177 30.8234 26.9222" fill="white"/>
    <path d="M25.6085 22.2568L26.3154 21.5494L25.6083 20.8428L24.9014 21.5497L25.6085 22.2568ZM26.7068 23.3542L27.4138 22.6471L27.4136 22.6469L26.7068 23.3542ZM27.8847 25.1169L28.8086 24.7342L28.8085 24.7341L27.8847 25.1169ZM27.8847 29.2754L28.8085 29.6582L28.8086 29.6581L27.8847 29.2754ZM26.7068 31.0381L27.413 31.746L27.4138 31.7452L26.7068 31.0381ZM26.4321 31.3121L25.7258 30.6041L25.7249 30.605L26.4321 31.3121ZM24.6694 32.4898L25.0521 33.4137L25.0521 33.4137L24.6694 32.4898ZM20.5109 32.4898L20.1282 33.4137L20.1282 33.4137L20.5109 32.4898ZM18.7482 31.3121L18.0411 32.0191L18.0411 32.0192L18.7482 31.3121ZM17.5705 29.5493L18.4944 29.1667L18.4943 29.1665L17.5705 29.5493ZM17.5705 25.3909L18.4943 25.7737L18.4944 25.7736L17.5705 25.3909ZM18.7482 23.6282L19.4553 22.9211L18.7482 22.214L18.0411 22.9211L18.7482 23.6282ZM19.8465 24.7265L20.5505 25.4367L21.2638 24.7296L20.5536 24.0194L19.8465 24.7265ZM18.9981 25.9857L19.9207 26.3715L19.9208 26.3713L18.9981 25.9857ZM18.6978 27.474L19.6978 27.4763L19.6978 27.4761L18.6978 27.474ZM18.9916 28.9637L18.0672 29.3453L18.0673 29.3455L18.9916 28.9637ZM21.0974 31.0694L21.4791 30.1452L21.4789 30.1451L21.0974 31.0694ZM22.5871 31.3632L22.5892 32.3632L22.5892 32.3632L22.5871 31.3632ZM24.0754 31.063L24.4611 31.9856L24.4612 31.9855L24.0754 31.063ZM25.3346 30.2145L24.6275 29.5074L24.6243 29.5106L25.3346 30.2145ZM25.6093 29.9398L26.3164 30.6469L26.3165 30.6468L25.6093 29.9398ZM25.6093 24.4525L26.3165 23.7455L26.3164 23.7454L25.6093 24.4525ZM24.5111 23.3542L23.804 22.6471L23.0969 23.3542L23.804 24.0613L24.5111 23.3542ZM29.7252 25.8239L29.0092 25.1259L28.3199 25.8329L29.0181 26.5311L29.7252 25.8239ZM29.6903 20.3708L28.9832 21.0779L28.9832 21.078L29.6903 20.3708ZM26.9707 19.2344L26.9643 20.2344L26.9644 20.2344L26.9707 19.2344ZM24.2372 20.3366L23.539 19.6206L23.5311 19.6285L24.2372 20.3366ZM23.9624 20.6106L23.2563 19.9025L23.2551 19.9036L23.9624 20.6106ZM23.9624 26.0979L23.2552 26.8049L23.2552 26.8049L23.9624 26.0979ZM25.0606 27.1962L25.7674 27.9035L26.475 27.1965L25.7677 26.4891L25.0606 27.1962ZM23.9624 28.2936L23.2552 29.0007L23.9621 29.7076L24.6692 29.001L23.9624 28.2936ZM22.8649 27.1962L23.572 26.4891L23.5719 26.489L22.8649 27.1962ZM21.6871 25.4334L22.6109 25.0508L22.6109 25.0506L21.6871 25.4334ZM21.6871 21.275L22.6109 21.6578L22.6109 21.6577L21.6871 21.275ZM22.8649 19.5124L22.1587 18.8044L22.1579 18.8052L22.8649 19.5124ZM23.1396 19.2383L23.8458 19.9463L23.8466 19.9455L23.1396 19.2383ZM24.9024 18.0606L25.285 18.9845L25.2851 18.9844L24.9024 18.0606ZM29.0608 18.0606L28.678 18.9844L28.6781 18.9845L29.0608 18.0606ZM30.8234 19.2383L30.1163 19.9455L30.1164 19.9455L30.8234 19.2383ZM32.0013 21.001L32.9252 20.6183L32.9251 20.6183L32.0013 21.001ZM32.0013 25.1595L32.9251 25.5422L32.9252 25.5422L32.0013 25.1595ZM25.6085 22.2568L24.9017 22.9641L25.9999 24.0616L26.7068 23.3542L27.4136 22.6469L26.3154 21.5494L25.6085 22.2568ZM26.7068 23.3542L25.9997 24.0614C26.4114 24.473 26.738 24.9617 26.9609 25.4997L27.8847 25.1169L28.8085 24.7341C28.4852 23.9536 28.0113 23.2445 27.4138 22.6471L26.7068 23.3542ZM27.8847 25.1169L26.9608 25.4995C27.1836 26.0375 27.2983 26.614 27.2983 27.1962H28.2983H29.2983C29.2983 26.3513 29.1319 25.5147 28.8086 24.7342L27.8847 25.1169ZM28.2983 27.1962H27.2983C27.2983 27.7782 27.1836 28.3548 26.9608 28.8927L27.8847 29.2754L28.8086 29.6581C29.1319 28.8776 29.2983 28.041 29.2983 27.1962H28.2983ZM27.8847 29.2754L26.9609 28.8926C26.738 29.4306 26.4114 29.9193 25.9997 30.3309L26.7068 31.0381L27.4138 31.7452C28.0113 31.1478 28.4852 30.4387 28.8085 29.6582L27.8847 29.2754ZM26.7068 31.0381L26.0005 30.3301L25.7258 30.6041L26.4321 31.3121L27.1383 32.0201L27.413 31.746L26.7068 31.0381ZM26.4321 31.3121L25.7249 30.605C25.3133 31.0166 24.8245 31.3431 24.2867 31.5659L24.6694 32.4898L25.0521 33.4137C25.8325 33.0904 26.5418 32.6166 27.1392 32.0192L26.4321 31.3121ZM24.6694 32.4898L24.2867 31.5659C23.7488 31.7887 23.1723 31.9034 22.5901 31.9034V32.9034V33.9034C23.435 33.9034 24.2716 33.737 25.0521 33.4137L24.6694 32.4898ZM22.5901 32.9034V31.9034C22.008 31.9034 21.4315 31.7887 20.8935 31.5659L20.5109 32.4898L20.1282 33.4137C20.9087 33.737 21.7453 33.9034 22.5901 33.9034V32.9034ZM20.5109 32.4898L20.8936 31.5659C20.3557 31.3431 19.867 31.0166 19.4553 30.605L18.7482 31.3121L18.0411 32.0192C18.6385 32.6166 19.3478 33.0904 20.1282 33.4137L20.5109 32.4898ZM18.7482 31.3121L19.4554 30.605C19.0437 30.1932 18.7172 29.7045 18.4944 29.1667L17.5705 29.5493L16.6466 29.932C16.9699 30.7126 17.4438 31.4217 18.0411 32.0191L18.7482 31.3121ZM17.5705 29.5493L18.4943 29.1665C18.2715 28.6287 18.1569 28.0523 18.1569 27.4701H17.1569H16.1569C16.1569 28.3149 16.3232 29.1515 16.6466 29.9321L17.5705 29.5493ZM17.1569 27.4701H18.1569C18.1569 26.8879 18.2715 26.3115 18.4943 25.7737L17.5705 25.3909L16.6466 25.0081C16.3232 25.7887 16.1569 26.6253 16.1569 27.4701H17.1569ZM17.5705 25.3909L18.4944 25.7736C18.7172 25.2357 19.0437 24.747 19.4553 24.3354L18.7482 23.6282L18.0411 22.9211C17.4438 23.5185 16.9699 24.2277 16.6466 25.0082L17.5705 25.3909ZM18.7482 23.6282L18.0411 24.3354L19.1394 25.4336L19.8465 24.7265L20.5536 24.0194L19.4553 22.9211L18.7482 23.6282ZM19.8465 24.7265L19.1424 24.0163C18.6861 24.4688 18.3234 25.0069 18.0755 25.6001L18.9981 25.9857L19.9208 26.3713C20.067 26.0214 20.281 25.7038 20.5505 25.4367L19.8465 24.7265ZM18.9981 25.9857L18.0756 25.5999C17.8276 26.1929 17.6992 26.8291 17.6978 27.4719L18.6978 27.474L19.6978 27.4761C19.6986 27.0968 19.7744 26.7214 19.9207 26.3715L18.9981 25.9857ZM18.6978 27.474L17.6978 27.4717C17.6964 28.1147 17.822 28.7513 18.0672 29.3453L18.9916 28.9637L19.9159 28.5822C19.7711 28.2313 19.697 27.8555 19.6978 27.4763L18.6978 27.474ZM18.9916 28.9637L18.0673 29.3455C18.3126 29.9395 18.6728 30.4792 19.1273 30.9337L19.8344 30.2266L20.5415 29.5195C20.2733 29.2512 20.0607 28.9327 19.9158 28.582L18.9916 28.9637ZM19.8344 30.2266L19.1273 30.9337C19.5818 31.3882 20.1216 31.7485 20.7158 31.9938L21.0974 31.0694L21.4789 30.1451C21.1284 30.0004 20.8098 29.7877 20.5415 29.5195L19.8344 30.2266ZM21.0974 31.0694L20.7156 31.9937C21.3098 32.2391 21.9465 32.3646 22.5892 32.3632L22.5871 31.3632L22.5849 30.3633C22.2055 30.3641 21.8296 30.2899 21.4791 30.1452L21.0974 31.0694ZM22.5871 31.3632L22.5892 32.3632C23.2319 32.3619 23.8681 32.2335 24.4611 31.9856L24.0754 31.063L23.6897 30.1403C23.3396 30.2867 22.9641 30.3624 22.5849 30.3633L22.5871 31.3632ZM24.0754 31.063L24.4612 31.9855C25.054 31.7376 25.5923 31.3751 26.0449 30.9185L25.3346 30.2145L24.6243 29.5106C24.3573 29.78 24.0397 29.994 23.6896 30.1404L24.0754 31.063ZM25.3346 30.2145L26.0417 30.9216L26.3164 30.6469L25.6093 29.9398L24.9022 29.2327L24.6275 29.5074L25.3346 30.2145ZM25.6093 29.9398L26.3165 30.6468C27.2315 29.7316 27.7456 28.4904 27.7456 27.1962H26.7456H25.7456C25.7456 27.96 25.4422 28.6926 24.9021 29.2328L25.6093 29.9398ZM26.7456 27.1962H27.7456C27.7456 25.9019 27.2315 24.6607 26.3165 23.7455L25.6093 24.4525L24.9021 25.1595C25.4422 25.6997 25.7456 26.4323 25.7456 27.1962H26.7456ZM25.6093 24.4525L26.3164 23.7454L25.2182 22.6471L24.5111 23.3542L23.804 24.0613L24.9022 25.1596L25.6093 24.4525ZM24.5111 23.3542L25.2182 24.0613L26.3156 22.9639L25.6085 22.2568L24.9014 21.5497L23.804 22.6471L24.5111 23.3542ZM30.8227 26.9214L31.5298 26.2142L30.4323 25.1168L29.7252 25.8239L29.0181 26.5311L30.1157 27.6285L30.8227 26.9214ZM29.7252 25.8239L30.4412 26.522C31.3374 25.6028 31.8353 24.3675 31.827 23.0838L30.8271 23.0902L29.8271 23.0966C29.832 23.8543 29.5381 24.5833 29.0092 25.1259L29.7252 25.8239ZM30.8271 23.0902L31.827 23.0838C31.8188 21.8001 31.3051 20.5713 30.3974 19.6636L29.6903 20.3708L28.9832 21.078C29.519 21.6136 29.8222 22.339 29.8271 23.0966L30.8271 23.0902ZM29.6903 20.3708L30.3974 19.6637C29.4896 18.7559 28.2606 18.2425 26.9769 18.2344L26.9707 19.2344L26.9644 20.2344C27.7221 20.2391 28.4475 20.5422 28.9832 21.0779L29.6903 20.3708ZM26.9707 19.2344L26.977 18.2344C25.6932 18.2263 24.4581 18.7245 23.539 19.6206L24.2372 20.3366L24.9353 21.0526C25.4778 20.5236 26.2068 20.2296 26.9643 20.2344L26.9707 19.2344ZM24.2372 20.3366L23.5311 19.6285L23.2563 19.9025L23.9624 20.6106L24.6684 21.3187L24.9432 21.0447L24.2372 20.3366ZM23.9624 20.6106L23.2551 19.9036C22.3401 20.8189 21.8262 22.0601 21.8262 23.3542H22.8262H23.8262C23.8262 22.5903 24.1295 21.8578 24.6696 21.3176L23.9624 20.6106ZM22.8262 23.3542H21.8262C21.8262 24.6483 22.3401 25.8897 23.2552 26.8049L23.9624 26.0979L24.6695 25.3908C24.1295 24.8508 23.8262 24.1182 23.8262 23.3542H22.8262ZM23.9624 26.0979L23.2552 26.8049L24.3534 27.9033L25.0606 27.1962L25.7677 26.4891L24.6695 25.3908L23.9624 26.0979ZM25.0606 27.1962L24.3537 26.4888L23.2555 27.5863L23.9624 28.2936L24.6692 29.001L25.7674 27.9035L25.0606 27.1962ZM23.9624 28.2936L24.6695 27.5865L23.572 26.4891L22.8649 27.1962L22.1578 27.9033L23.2552 29.0007L23.9624 28.2936ZM22.8649 27.1962L23.5719 26.489C23.1603 26.0774 22.8337 25.5887 22.6109 25.0508L21.6871 25.4334L20.7632 25.8161C21.0864 26.5966 21.5603 27.3059 22.1579 27.9034L22.8649 27.1962ZM21.6871 25.4334L22.6109 25.0506C22.3881 24.513 22.2734 23.9365 22.2734 23.3542H21.2734H20.2734C20.2734 24.199 20.4398 25.0357 20.7632 25.8163L21.6871 25.4334ZM21.2734 23.3542H22.2734C22.2734 22.772 22.3881 22.1956 22.6109 21.6578L21.6871 21.275L20.7632 20.8922C20.4398 21.6729 20.2734 22.5094 20.2734 23.3542H21.2734ZM21.6871 21.275L22.6109 21.6577C22.8337 21.1198 23.1602 20.6312 23.5719 20.2195L22.8649 19.5124L22.1579 18.8052C21.5603 19.4026 21.0865 20.1118 20.7632 20.8923L21.6871 21.275ZM22.8649 19.5124L23.5711 20.2204L23.8458 19.9463L23.1396 19.2383L22.4334 18.5304L22.1587 18.8044L22.8649 19.5124ZM23.1396 19.2383L23.8466 19.9455C24.2584 19.5338 24.7471 19.2073 25.285 18.9845L24.9024 18.0606L24.5197 17.1367C23.7391 17.46 23.03 17.9339 22.4326 18.5312L23.1396 19.2383ZM24.9024 18.0606L25.2851 18.9844C25.8229 18.7616 26.3993 18.647 26.9816 18.647V17.647V16.647C26.1367 16.647 25.3002 16.8133 24.5196 17.1368L24.9024 18.0606ZM26.9816 17.647V18.647C27.5638 18.647 28.1402 18.7616 28.678 18.9844L29.0608 18.0606L29.4436 17.1368C28.6629 16.8133 27.8264 16.647 26.9816 16.647V17.647ZM29.0608 18.0606L28.6781 18.9845C29.216 19.2073 29.7047 19.5338 30.1163 19.9455L30.8234 19.2383L31.5305 18.5312C30.9332 17.9339 30.224 17.46 29.4434 17.1367L29.0608 18.0606ZM30.8234 19.2383L30.1164 19.9455C30.5281 20.3571 30.8546 20.8459 31.0774 21.3837L32.0013 21.001L32.9251 20.6183C32.6019 19.8379 32.128 19.1286 31.5305 18.5312L30.8234 19.2383ZM32.0013 21.001L31.0774 21.3837C31.3002 21.9215 31.4148 22.4981 31.4148 23.0802H32.4148H33.4148C33.4148 22.2355 33.2485 21.3989 32.9252 20.6183L32.0013 21.001ZM32.4148 23.0802H31.4148C31.4148 23.6625 31.3002 24.239 31.0774 24.7769L32.0013 25.1595L32.9252 25.5422C33.2485 24.7616 33.4148 23.925 33.4148 23.0802H32.4148ZM32.0013 25.1595L31.0774 24.7768C30.8546 25.3147 30.5281 25.8034 30.1164 26.215L30.8234 26.9222L31.5305 27.6293C32.128 27.0319 32.6019 26.3226 32.9251 25.5422L32.0013 25.1595Z" fill="black" mask="url(#path-2-inside-1_30_2)"/>
</svg>
