<svg width="24" height="24" viewBox="0 0 24 24" fill="none" xmlns="http://www.w3.org/2000/svg">
    <path d="M12.017 0C8.396 0 6.544 3.724 6.544 6.867c0 1.867.352 3.035.612 3.493.169.295.28.559.28.815 0 .405-.169.733-.508 1.001-.339.268-.677.438-.846.577-.254.212-.338.423-.338.635 0 .296.197.563.592.76.424.219.846.423 1.27.628.423.212.761.423.952.635.127.141.169.296.169.451 0 .508-.422 1.001-.761 1.394-.254.295-.508.577-.59 1.002-.084.508.169 1.001.761 1.216.508.169 1.155.339 1.733.423.424.085.846.169 1.141.423.423.339.592.915.846 1.522.085.211.169.339.338.423.127.08.296.13.465.13.592 0 1.057-.676 1.395-1.283.339-.607.677-1.214 1.27-1.438.423-.155.93-.24 1.522-.339.591-.099 1.239-.199 1.733-.451.423-.212.677-.635.592-1.143-.084-.423-.338-.72-.59-1.001-.34-.423-.678-.845-.678-1.353 0-.169.042-.282.126-.423.204-.225.536-.437.958-.648.423-.212.845-.424 1.268-.636.423-.212.592-.464.592-.76 0-.212-.084-.423-.338-.635-.169-.141-.507-.31-.846-.577-.339-.268-.507-.596-.507-1.001 0-.254.112-.518.281-.814.281-.479.633-1.646.633-3.514C17.457 3.724 15.677 0 12.017 0z" fill="currentColor"/>
</svg>