<svg width="24" height="24" viewBox="0 0 24 24" fill="none" xmlns="http://www.w3.org/2000/svg">
    <path d="M12.186 24h-.007c-3.581-.024-6.334-1.205-8.184-3.509C2.35 18.44 1.5 15.586 1.472 12.01v-.017c.03-3.579.879-6.43 2.525-8.482C5.845 1.205 8.6.024 12.18 0h.014c2.746.02 5.043.725 6.826 2.098 1.677 1.29 2.858 3.13 3.509 5.467l-2.04.569c-1.104-3.96-3.898-5.984-8.304-6.015-2.91.022-5.11.936-6.54 2.717C4.307 6.504 3.616 8.914 3.589 12c.027 3.086.718 5.496 2.057 7.164 1.43 1.781 3.63 2.695 6.54 2.717 2.623-.02 4.358-.631 5.8-2.045 1.647-1.613 1.618-3.593 1.09-4.798-.31-.71-.873-1.3-1.634-1.75-.192 1.352-.622 2.446-1.284 3.272-.886 1.102-2.14 1.704-3.73 1.79-1.202.065-2.361-.218-3.259-.801-1.063-.689-1.685-1.74-1.752-2.964-.065-1.19.408-2.285 1.33-3.082.88-.76 2.119-1.207 3.583-1.291a13.853 13.853 0 0 1 3.02.142c-.126-.742-.375-1.332-.74-1.774-.513-.62-1.227-.94-2.124-.952-.235 0-.469.016-.702.049-.258.036-.517.088-.772.156-.246.066-.721.199-.721.199l-.531-1.934.002-.001c.008-.002.154-.05.428-.132.274-.082.56-.17.859-.25.315-.084.69-.16 1.125-.22.435-.061.947-.092 1.536-.092 1.643 0 2.914.519 3.781 1.543.563.665.941 1.547 1.123 2.62.244.143.456.306.639.491.672.677 1.023 1.57.98 2.654-.046 1.141-.412 2.181-1.092 3.096-.814 1.096-2.07 1.896-3.73 2.38-.83.242-1.783.366-2.835.372h-.014z" fill="currentColor"/>
</svg>