<svg width="24" height="24" viewBox="0 0 24 24" fill="none" xmlns="http://www.w3.org/2000/svg">
    <path d="M12.525.02c1.31-.02 2.61-.01 3.91-.02.08 1.53.63 3.09 1.75 4.17 1.12 1.11 2.7 1.62 4.24 1.79v4.03c-1.44-.05-2.89-.35-4.2-.97-.57-.26-1.1-.59-1.62-.93-.01 2.92.01 5.84-.02 8.75-.08 1.4-.54 2.79-1.35 3.94-1.31 1.92-3.58 3.17-5.91 3.21-1.43.08-2.86-.31-4.08-1.03-2.02-1.19-3.44-3.37-3.65-5.71-.02-.5-.03-1-.01-1.49.18-1.9 1.05-3.72 2.41-4.96 1.7-1.55 4.15-2.38 6.29-1.31.08 1.26.16 2.53.21 3.79-1.12-.49-2.5-.26-3.4.58-.85.81-1.01 2.13-.44 3.12.72 1.27 2.48 1.49 3.53.43.78-.78.93-2.04.82-3.12-.07-2.58 0-5.16-.02-7.74.01-1.48 0-2.96-.01-4.44z" fill="currentColor"/>
</svg>