<svg width="30" height="30" viewBox="0 0 30 30" fill="none" xmlns="http://www.w3.org/2000/svg">
    <g clip-path="url(#clip0_360_28)">
        <path d="M4.884 -3H25.116C29.4703 -3 33 0.627734 33 5.103V25.897C33 30.3723 29.4703 34 25.116 34H4.884C0.529687 34 -3 30.3723 -3 25.897V5.103C-3 0.627734 0.529687 -3 4.884 -3Z" fill="url(#paint0_linear_360_28)"/>
        <path d="M9.6143 21.7746L9.61711 21.7755L8.59137 23.5521C8.21695 24.2006 7.38774 24.4228 6.73922 24.0484C6.09082 23.674 5.86852 22.8448 6.24293 22.1963L6.99856 20.8875L7.07109 20.7619C7.20059 20.5758 7.52016 20.2545 8.15941 20.3149C8.15941 20.3149 9.66375 20.4782 9.77262 21.26C9.77262 21.26 9.78738 21.5173 9.6143 21.7746ZM24.1623 17.2371H20.9638C20.7459 17.2225 20.6509 17.1446 20.6134 17.0994L20.6111 17.0953L17.1872 11.1649L17.1827 11.1679L16.9774 10.8735C16.6409 10.3588 16.1065 11.675 16.1065 11.675C15.4684 13.1418 16.1971 14.8092 16.451 15.3132L21.2067 23.5504C21.581 24.1988 22.4102 24.4211 23.0589 24.0465C23.7073 23.6721 23.9296 22.8429 23.555 22.1944L22.3659 20.1347C22.3429 20.0848 22.3028 19.9493 22.5466 19.9487H24.1623C24.9111 19.9487 25.5182 19.3417 25.5182 18.5929C25.5182 17.844 24.9111 17.2371 24.1623 17.2371ZM17.9497 19.0802C17.9497 19.0802 18.1205 19.9487 17.4599 19.9487H5.63578C4.88695 19.9487 4.27992 19.3417 4.27992 18.5929C4.27992 17.844 4.88695 17.237 5.63578 17.237H8.67563C9.16641 17.2086 9.28266 16.9253 9.28266 16.9253L9.28547 16.9267L13.2534 10.0539L13.2523 10.0536C13.3246 9.92086 13.2643 9.79535 13.2539 9.77555L11.9434 7.50574C11.569 6.85734 11.7912 6.02801 12.4397 5.65371C13.0882 5.2793 13.9174 5.50137 14.2918 6.14988L14.8996 7.20258L15.5063 6.15176C15.8807 5.50336 16.7099 5.28106 17.3584 5.65559C18.0069 6.03 18.2291 6.8591 17.8547 7.50762L12.333 17.0713C12.3089 17.1295 12.3015 17.2209 12.4812 17.237H15.7816L15.7823 17.2692C15.7823 17.2692 17.6899 17.2989 17.9497 19.0802Z" fill="white"/>
    </g>
    <defs>
        <linearGradient id="paint0_linear_360_28" x1="-3" y1="1847" x2="3597" y2="1847" gradientUnits="userSpaceOnUse">
            <stop offset="0.612981" stop-color="#1693DA"/>
            <stop offset="0.655048" stop-color="#1677C9"/>
            <stop offset="0.676082" stop-color="#156AC0"/>
            <stop offset="0.686599" stop-color="#1563BC"/>
            <stop offset="0.691857" stop-color="#155FBA"/>
            <stop offset="0.694486" stop-color="#155EB9"/>
            <stop offset="0.695801" stop-color="#155DB9"/>
            <stop offset="0.696458" stop-color="#155CB8"/>
            <stop offset="0.697115" stop-color="#155CB8"/>
        </linearGradient>
        <clipPath id="clip0_360_28">
            <rect width="30" height="30" fill="white"/>
        </clipPath>
    </defs>
</svg>
