<svg width="30" height="30" viewBox="0 0 30 30" fill="none" xmlns="http://www.w3.org/2000/svg">
    <path d="M6.07455 5.90775C6.0242 6.12282 5.99913 6.34474 6.00002 6.56754V24.3826C6.00055 24.6053 6.02559 24.827 6.07455 25.0425L14.6917 15.2169L6.07455 5.90775Z" fill="#4285F4"/>
    <path d="M14.4682 15.4751L18.7768 10.5623L9.41468 4.36577C9.06244 4.12745 8.66181 4.00125 8.25361 4C7.24062 3.99773 6.35004 4.77441 6.07455 5.90061L14.4682 15.4751Z" fill="#34A853"/>
    <path d="M14.4061 14.9587L6.07455 25.0425C6.16812 25.4255 6.33625 25.7788 6.56611 26.0752C6.79596 26.3717 7.08145 26.6035 7.40075 26.753C7.72004 26.9025 8.0647 26.9656 8.40837 26.9376C8.75203 26.9097 9.08561 26.7913 9.3836 26.5915L18.7582 20.4237L14.4061 14.9587Z" fill="#EA4335"/>
    <path d="M22.8307 13.2446L18.7769 10.5622L14.2137 15.1881L18.7954 20.4093L22.8184 17.7556C23.1748 17.54 23.4733 17.2159 23.6816 16.8183C23.8899 16.4207 24 15.9648 24 15.5001C24 15.0354 23.8899 14.5795 23.6816 14.1819C23.4733 13.7843 23.1748 13.4601 22.8184 13.2446H22.8309L22.8307 13.2446Z" fill="#FBBC04"/>
</svg>
