<svg width="39" height="39" viewBox="0 0 39 39" fill="none" xmlns="http://www.w3.org/2000/svg">
    <rect width="39" height="39" fill="#00C359"/>
    <path d="M35.7337 10.6389C35.7202 9.94171 35.6643 9.24601 35.5664 8.55562C35.4496 7.94154 35.2512 7.34584 34.9765 6.78438C34.375 5.59699 33.4108 4.63218 32.2237 4.03C31.6659 3.75653 31.074 3.5587 30.4639 3.44175C29.7682 3.34178 29.067 3.2848 28.3644 3.27113C28.067 3.25975 27.6819 3.25488 27.5031 3.25488L11.5001 3.25C11.3214 3.25 10.9362 3.25487 10.6389 3.26625C9.9417 3.27968 9.246 3.33558 8.55562 3.43362C7.94154 3.55036 7.34584 3.74875 6.78437 4.0235C5.59706 4.62508 4.63228 5.58929 4.03 6.77625C3.7566 7.33414 3.55878 7.92597 3.44175 8.53612C3.34133 9.23176 3.28381 9.93292 3.2695 10.6356C3.25975 10.933 3.25325 11.3181 3.25325 11.4969L3.25 27.4999C3.25 27.6786 3.25487 28.0637 3.26625 28.3611C3.27968 29.0583 3.33558 29.754 3.43362 30.4444C3.55038 31.0585 3.74877 31.6542 4.0235 32.2156C4.62508 33.4029 5.58929 34.3677 6.77625 34.97C7.33415 35.2434 7.92598 35.4412 8.53612 35.5582C9.23178 35.6582 9.93295 35.7152 10.6356 35.7289C10.933 35.7402 11.3181 35.7451 11.4969 35.7451L27.4999 35.7484C27.6786 35.7484 28.0637 35.7435 28.3611 35.7321C29.0583 35.7186 29.754 35.6627 30.4444 35.5647C31.0584 35.4479 31.6541 35.2496 32.2156 34.9749C33.4035 34.3736 34.3689 33.4093 34.9716 32.2221C35.2451 31.6643 35.4429 31.0724 35.5599 30.4623C35.6603 29.7666 35.7179 29.0655 35.7321 28.3628C35.7419 28.0654 35.7484 27.6802 35.7484 27.5015L35.75 11.5001C35.75 11.3214 35.7451 10.9362 35.7337 10.6389ZM19.8526 30.8051H19.8477C17.9134 30.8047 16.0101 30.3198 14.3114 29.3946L8.16887 31.005L9.81337 25.0039C8.54011 22.7944 8.03135 20.2266 8.36598 17.6985C8.70062 15.1704 9.85994 12.8234 11.6642 11.0213C13.4685 9.21916 15.8169 8.06263 18.3453 7.73101C20.8738 7.39939 23.441 7.9112 25.649 9.18709C27.857 10.463 29.5823 12.4317 30.5576 14.7879C31.5328 17.1442 31.7034 19.7564 31.043 22.2195C30.3826 24.6826 28.928 26.859 26.9048 28.4113C24.8816 29.9636 22.4027 30.805 19.8526 30.8051Z" fill="#00C359"/>
    <path d="M19.8561 7.58749C22.9407 7.58801 25.8989 8.81418 28.0797 10.9957C30.2604 13.1772 31.4855 16.1358 31.485 19.2203C31.4844 22.3048 30.2582 25.2632 28.0768 27.4439C25.8953 29.6246 22.9367 30.8488 19.8522 30.8482H19.8473C17.9095 30.8483 16.0053 30.3632 14.3063 29.441L11.4576 30.1881L8.10608 31.067L9.02209 27.7252L9.76721 25.0084C8.8112 23.3422 8.27985 21.4636 8.22717 19.5387C8.1704 17.4615 8.67125 15.4066 9.67737 13.5885C10.6836 11.7703 12.1595 10.2548 13.9498 9.1998C14.5324 8.85649 15.1419 8.56728 15.7701 8.33163L15.025 7.58652L19.8561 7.58749Z" fill="#00C359" stroke="white" stroke-width="4"/>
    <g clip-path="url(#clip0_366_36)">
        <path d="M16.8147 14.0011L17.4883 13.9036L19.1002 17.9137L18.2101 18.8912C18.4507 20.5537 20.0385 22.0213 21.3857 21.8263L21.8788 20.482L25.4272 21.2415L25.5475 22.0727C25.6432 22.7341 25.5221 23.3992 25.2108 23.9218C24.8996 24.4443 24.4236 24.7814 23.8876 24.859C19.1725 25.5414 15.8767 21.7749 15.1548 16.7873C15.0591 16.1259 15.1802 15.4608 15.4915 14.9383C15.8028 14.4157 16.2788 14.0786 16.8147 14.0011Z" fill="white"/>
    </g>
    <defs>
        <clipPath id="clip0_366_36">
            <rect width="10.8897" height="13.4389" fill="white" transform="translate(14 13.5597) rotate(-8.23467)"/>
        </clipPath>
    </defs>
</svg>
