<svg width="512" height="349" viewBox="0 0 512 349" fill="none" xmlns="http://www.w3.org/2000/svg">
    <path d="M233.2 248.7L206.4 287.2H191.8L187.8 248.7H201.4L202.9 275.2L219.9 248.7H233.2Z" fill="white" fill-opacity="0.65"/>
    <path d="M240.1 287.1H227.2L238.6 248.6H251.5L240.1 287.1ZM253.4 243.2H239.8L242.6 233.8H256.2L253.4 243.2Z" fill="white" fill-opacity="0.65"/>
    <path d="M288.8 274.9C287.6 278.9 284.8 282.1 280.4 284.5C276 286.9 270.5 288.1 264.1 288.1C260.9 288.1 257.8 287.8 254.7 287.1C252.5 286.6 250.4 285.9 248.3 285L251.3 274.9H252.5C253 275.3 253.6 275.8 254.3 276.3C255.3 277 256.3 277.5 257.4 278C258.7 278.6 260.1 279 261.5 279.4C263.2 279.8 265 280 266.8 280C268.8 280.1 270.8 279.8 272.6 279.2C273.8 278.9 274.7 278 275.1 276.8C275.4 276.1 275.2 275.3 274.6 274.8C273.4 274.2 272.2 273.8 270.9 273.6C270 273.4 268.8 273.2 267.2 272.9C265.8 272.7 264.4 272.4 263 272C259.6 271.1 257.3 269.7 256.1 267.7C254.9 265.7 254.7 263.4 255.6 260.5C256.7 256.8 259.4 253.7 263.8 251.3C268.2 248.9 273.6 247.6 279.9 247.6C282.7 247.6 285.5 247.9 288.3 248.5C290.3 248.9 292.3 249.5 294.2 250.4L291.3 260.1H290.2C288.5 258.8 286.6 257.7 284.6 257C282.3 256.2 279.9 255.8 277.5 255.8C275.6 255.8 273.8 256 272 256.6C270.4 257.1 269.5 257.9 269.2 258.9C268.9 259.6 269 260.4 269.6 261C270.1 261.5 271.5 262 273.7 262.4C274.9 262.7 276.3 262.9 277.7 263.1C279.1 263.3 280.6 263.6 282 264C285.1 264.8 287.2 266.2 288.3 268C289.4 269.8 289.6 272.2 288.8 274.9Z" fill="white" fill-opacity="0.65"/>
    <path d="M304.8 287.1H291.9L303.3 248.6H316.2L304.8 287.1ZM318.1 243.2H304.5L307.3 233.8H320.9L318.1 243.2Z" fill="white" fill-opacity="0.65"/>
    <path d="M340.8 286.8C339.3 287.1 337.7 287.4 336.2 287.6C334.3 287.8 332.4 287.9 330.4 287.9C325.4 287.9 322 286.9 320.1 285C318.2 283.1 318 279.7 319.4 275L324.7 257H319.4L321.9 248.6H327.2L330.4 237.6H343.3L340.1 248.6H352.1L349.6 257H337.6L333.6 270.6C333.2 272 332.9 273.1 332.6 274.1C332.3 275 332.3 275.9 332.4 276.8C332.5 277.6 332.9 278.3 333.6 278.7C334.7 279.3 335.9 279.5 337.1 279.4C338 279.4 338.9 279.2 339.8 279C340.7 278.8 341.5 278.6 342.3 278.2H343.4L340.8 286.8Z" fill="white" fill-opacity="0.65"/>
    <path d="M372 283.1C371.2 283.6 370.1 284.2 368.9 284.9C367.8 285.5 366.7 286.1 365.5 286.6C364.1 287.1 362.7 287.5 361.2 287.8C359.7 288.1 358.2 288.2 356.6 288.2C352.8 288.2 349.9 287.1 348 284.8C346.1 282.5 345.7 279.7 346.7 276.1C347.4 273.5 348.8 271.1 350.7 269.2C352.7 267.3 355 265.9 357.5 265C360.6 263.9 363.8 263.2 367 262.8C370.6 262.4 374.4 262 378.2 261.8L378.3 261.6C378.9 259.5 378.5 258 376.9 257.2C375.3 256.4 372.8 256 369.3 256C366.9 256 364.5 256.4 362.2 257.1C359.6 257.8 357.7 258.4 356.5 258.8H355.3L358 249.5C359.5 249.2 361.8 248.7 365 248.3C368.1 247.8 371.3 247.6 374.4 247.6C381.7 247.6 386.7 248.7 389.3 250.8C391.9 253 392.5 256.3 391.2 261L383.5 287.2H370.8L372 283.1ZM373.8 277.1L376.2 269.1C374.4 269.2 372.5 269.4 370.4 269.7C368.8 269.9 367.1 270.1 365.5 270.5C364.2 270.8 363.1 271.4 362.1 272.2C361.2 273 360.5 274 360.2 275.1C360 275.7 359.9 276.4 359.8 277C359.8 277.5 360 278.1 360.4 278.4C360.9 278.9 361.4 279.2 362.1 279.4C363.2 279.7 364.4 279.8 365.6 279.7C367 279.7 368.4 279.4 369.7 278.9C371.1 278.5 372.5 277.9 373.8 277.1Z" fill="white" fill-opacity="0.65"/>
    <path d="M184.1 321.2H161.2C160.7 323.5 161.1 325.3 162.4 326.6C163.7 327.9 166.1 328.5 169.4 328.5C171.6 328.5 173.8 328.1 175.8 327.4C177.7 326.8 179.5 326 181.2 325.1H182.3L180 332.8C177.7 333.6 175.4 334.2 173.1 334.7C170.9 335.1 168.6 335.3 166.3 335.3C160.1 335.3 155.7 334 153.1 331.3C150.6 328.6 150 324.8 151.5 319.8C152.8 315.1 155.7 310.9 159.7 308.1C163.9 305.2 168.8 303.7 173.9 303.8C179 303.8 182.4 305 184.2 307.5C186 310 186.3 313.5 184.9 318.1L184.1 321.2ZM175.8 315.6C176.3 313.6 176.3 312.1 175.6 311.1C174.9 310.1 173.5 309.6 171.5 309.6C169.7 309.6 167.9 310.1 166.3 311C164.7 312.1 163.5 313.7 162.9 315.6H175.8Z" fill="white" fill-opacity="0.65"/>
    <path d="M201.8 335.2C199.4 335.2 197 334.9 194.6 334.3C192.7 333.8 191 332.8 189.6 331.4C188.3 330.1 187.5 328.4 187.2 326.5C186.9 324.2 187.1 321.8 187.9 319.6C188.6 317 189.8 314.5 191.5 312.4C193 310.4 194.9 308.7 197.1 307.4C199.2 306.1 201.4 305.2 203.7 304.6C206 304 208.4 303.7 210.8 303.7C212.7 303.7 214.6 303.9 216.5 304.4C218.1 304.8 219.6 305.4 221 306.1L218.6 314.3H217.2C216.9 314 216.6 313.6 216.1 313.2C215.6 312.7 215.1 312.3 214.5 312C210.6 309.9 205.8 310.3 202.4 313.1C200.4 314.8 199 317.1 198.3 319.7C197.4 322.6 197.5 324.8 198.6 326.2C199.7 327.6 201.5 328.4 204.2 328.4C205.4 328.4 206.6 328.3 207.7 328C208.7 327.8 209.6 327.4 210.5 327C211.2 326.7 211.9 326.3 212.5 325.9C213.1 325.5 213.6 325.1 214.2 324.8H215.6L213.2 333C211.4 333.7 209.6 334.3 207.8 334.7C205.8 335 203.8 335.2 201.8 335.2Z" fill="white" fill-opacity="0.65"/>
    <path d="M248.9 334.4H238.9L239.9 331.1C238 332.3 236 333.3 233.9 334.2C232.1 334.9 230.1 335.3 228.1 335.2C224.7 335.2 222.3 334.3 221 332.4C219.7 330.5 219.6 327.7 220.7 324L226.4 304.6H236.4L232 319.4C231.6 320.6 231.3 321.9 231 323.2C230.8 324 230.8 324.9 231 325.7C231.1 326.3 231.6 326.9 232.2 327.1C233.1 327.5 234.1 327.6 235.1 327.6C236.1 327.6 237.1 327.4 238.1 327.1C239.3 326.8 240.4 326.3 241.5 325.8L247.7 304.6H257.7L248.9 334.4Z" fill="white" fill-opacity="0.65"/>
    <path d="M276.7 331.2C276.1 331.6 275.2 332.1 274.3 332.6C273.5 333.1 272.6 333.5 271.7 333.9C270.6 334.3 269.5 334.6 268.4 334.8C267.2 335 266 335.1 264.8 335.1C261.8 335.1 259.6 334.2 258.2 332.5C256.8 330.8 256.4 328.5 257.2 325.8C257.7 323.8 258.8 321.9 260.3 320.4C261.8 319 263.6 317.8 265.6 317.1C268 316.2 270.5 315.7 273 315.4C275.8 315.1 278.8 314.8 281.7 314.6V314.4C282.2 312.8 281.8 311.6 280.6 311C278.7 310.2 276.7 309.9 274.7 310C272.8 310 271 310.3 269.2 310.8C267.2 311.4 265.7 311.8 264.8 312.1H263.9L266 304.9C267.1 304.6 268.9 304.3 271.4 304C273.8 303.6 276.3 303.5 278.7 303.5C284.4 303.5 288.2 304.3 290.3 306C292.4 307.7 292.8 310.3 291.8 313.9L285.8 334.2H275.9L276.7 331.2ZM278 326.6L279.8 320.4C278.4 320.5 276.9 320.7 275.3 320.8C274 320.9 272.8 321.1 271.5 321.4C270.5 321.6 269.6 322.1 268.8 322.7C268.1 323.3 267.6 324.1 267.3 325C267.1 325.5 267 326 267 326.5C267 326.9 267.2 327.3 267.5 327.6C267.9 328 268.3 328.3 268.8 328.4C269.7 328.6 270.6 328.7 271.5 328.6C272.6 328.6 273.7 328.4 274.7 328C276 327.7 277 327.2 278 326.6Z" fill="white" fill-opacity="0.65"/>
    <path d="M323.7 334.4H313.7L314.6 331.3C312.8 332.5 310.9 333.5 308.9 334.3C307.2 334.9 305.3 335.3 303.4 335.3C299.6 335.3 297 333.9 295.6 331.1C294.2 328.3 294.1 324.5 295.5 319.8C296.2 317.4 297.2 315.1 298.6 313.1C299.9 311.2 301.4 309.5 303.2 308.1C304.8 306.8 306.7 305.7 308.7 305C310.5 304.3 312.5 303.9 314.4 303.9C315.9 303.8 317.4 304 318.8 304.5C319.9 304.9 321 305.4 322 306L325.8 293.3H335.8L323.7 334.4ZM316.1 326.1L320.4 311.4C319.8 311.1 319.1 310.9 318.4 310.8C317.7 310.7 317 310.6 316.3 310.6C313.9 310.5 311.5 311.4 309.7 313C307.8 314.8 306.4 317 305.8 319.5C304.9 322.4 304.8 324.6 305.5 325.9C306.2 327.2 307.7 327.9 310 327.9C311 327.9 312 327.7 313 327.4C314.1 327.1 315.1 326.7 316.1 326.1Z" fill="white" fill-opacity="0.65"/>
    <path d="M367.9 319.4C366.6 324 363.8 328.1 360 331C356 333.9 351.1 335.4 346.2 335.2C340.8 335.2 337 333.8 334.9 331C332.8 328.2 332.4 324.3 333.9 319.4C335.2 314.7 338 310.6 341.9 307.8C345.9 304.9 350.8 303.4 355.7 303.6C361.1 303.6 364.9 305 367.1 307.9C369 310.7 369.4 314.5 367.9 319.4ZM353.5 326.7C354.4 325.9 355.2 325 355.8 323.9C356.6 322.5 357.2 321 357.6 319.4C358.1 318 358.3 316.5 358.4 315C358.5 314 358.3 313 357.9 312.1C357.5 311.4 356.9 310.9 356.2 310.6C355.4 310.3 354.5 310.1 353.6 310.1C352.7 310.1 351.8 310.2 350.9 310.5C349.9 310.8 349.1 311.3 348.3 312C347.4 312.8 346.6 313.8 346 314.8C345.2 316.2 344.6 317.8 344.1 319.3C343.7 320.7 343.4 322.1 343.3 323.5C343.2 324.5 343.4 325.5 343.8 326.4C344.2 327.1 344.8 327.6 345.5 327.9C346.3 328.2 347.3 328.4 348.2 328.4C349.1 328.4 350 328.2 350.9 328C351.9 327.9 352.7 327.4 353.5 326.7Z" fill="white" fill-opacity="0.65"/>
    <path d="M397.9 313.6H397C396.4 313.4 395.7 313.3 395 313.3C394.1 313.2 393.3 313.2 392.7 313.2C391.4 313.2 390.1 313.3 388.9 313.5C387.6 313.7 386.3 314 385.1 314.4L379.2 334.4H369.2L378 304.5H388L386.7 308.9C388.8 307.4 391.1 306.2 393.5 305.3C395 304.8 396.6 304.5 398.3 304.4H399.5C399.9 304.4 400.3 304.4 400.6 304.5L397.9 313.6Z" fill="white" fill-opacity="0.65"/>
    <path d="M401.8 334.4H394.6L396.7 327.1H404L401.8 334.4Z" fill="white" fill-opacity="0.65"/>
    <path d="M418.8 334.9C417.1 334.9 415.4 334.7 413.8 334.3C412.5 333.9 411.3 333.2 410.3 332.3C409.4 331.4 408.8 330.2 408.6 328.9C408.4 327.3 408.6 325.6 409.1 324.1C410.1 320.6 412.3 317.5 415.5 315.6C416.9 314.7 418.5 314.1 420.1 313.7C421.7 313.3 423.4 313.1 425.1 313.1C426.4 313.1 427.8 313.2 429.1 313.6C430.2 313.9 431.2 314.3 432.2 314.8L430.5 320.5H429.5L428.8 319.7C428.5 319.4 428.1 319.1 427.7 318.8C427.2 318.5 426.7 318.3 426.2 318.1C423.8 317.5 421.2 318 419.3 319.5C417.9 320.7 416.9 322.3 416.4 324.1C415.8 326.1 415.9 327.6 416.6 328.7C417.3 329.7 418.6 330.2 420.5 330.2C421.3 330.2 422.1 330.1 423 329.9C423.7 329.7 424.3 329.5 425 329.2C425.5 329 425.9 328.7 426.4 328.4C426.8 328.1 427.2 327.9 427.6 327.6H428.6L426.9 333.3C425.7 333.8 424.4 334.2 423.1 334.5C421.5 334.8 420.1 334.9 418.8 334.9Z" fill="white" fill-opacity="0.65"/>
    <path d="M455.1 324C454.2 327.2 452.3 330.1 449.6 332.1C446.8 334.1 443.4 335.1 440 335.1C436.2 335.1 433.6 334.1 432.1 332.1C430.6 330.1 430.4 327.4 431.4 324C432.3 320.8 434.2 317.9 436.9 315.9C439.7 313.9 443.1 312.9 446.5 312.9C450.3 312.9 452.9 313.9 454.4 315.9C455.9 317.9 456.1 320.6 455.1 324ZM445.1 329C445.7 328.4 446.3 327.8 446.7 327.1C447.2 326.1 447.7 325.1 447.9 324C448.2 323 448.4 322 448.5 320.9C448.5 320.2 448.4 319.5 448.1 318.9C447.9 318.4 447.4 318 446.9 317.8C446.3 317.6 445.7 317.5 445.1 317.5C444.5 317.5 443.8 317.6 443.2 317.8C442.5 318 441.9 318.4 441.4 318.8C440.8 319.4 440.2 320 439.8 320.8C439.2 321.8 438.8 322.9 438.5 324C438.2 325 438 326 438 327C438 327.7 438.1 328.4 438.4 329C438.7 329.5 439.1 329.8 439.6 330C440.2 330.2 440.8 330.4 441.5 330.3C442.1 330.3 442.8 330.2 443.4 330C444 329.8 444.6 329.5 445.1 329Z" fill="white" fill-opacity="0.65"/>
    <path d="M481.6 319.6L477.2 334.3H470.2L473.3 323.9C473.6 322.9 473.8 322 474 321.3C474.2 320.7 474.2 320.1 474.1 319.6C474 319.2 473.7 318.8 473.3 318.6C472.7 318.4 472.1 318.3 471.4 318.3C470.7 318.3 470 318.4 469.3 318.7C468.6 318.9 468 319.2 467.3 319.6L463 334.4H456L462.1 313.6H469.1L468.4 315.9C469.7 315.1 471.1 314.4 472.5 313.8C473.7 313.3 475 313 476.4 313C477.6 312.9 478.9 313.3 479.9 313.9C480.8 314.5 481.5 315.5 481.7 316.6C483.2 315.6 484.8 314.7 486.5 314C487.8 313.4 489.2 313.1 490.6 313C492.9 313 494.5 313.7 495.3 315C496.1 316.3 496.2 318.3 495.4 320.8L491.4 334.3H484.4L487.5 323.9C487.8 322.9 488 322 488.2 321.3C488.4 320.7 488.4 320.2 488.3 319.6C488.2 319.2 487.9 318.8 487.5 318.6C486.9 318.4 486.2 318.3 485.6 318.3C485 318.3 484.4 318.4 483.8 318.6C483.1 318.9 482.3 319.2 481.6 319.6Z" fill="white" fill-opacity="0.65"/>
    <path d="M112.1 347.9H111.7C101.3 347.3 94.8 327.3 84.3 291.9C83 287.5 81.6 282.9 80.2 278.2C66.6 233.5 47.1 179.3 16.9 156.6C15.9 156 15.7 154.7 16.3 153.7C16.8 152.9 17.8 152.6 18.7 152.9C19.1 153 28.9 155.8 46 168.5C72.7 188.5 97.2 218.2 113.8 240.9C116.4 231.4 124.3 207.6 146.4 173.6C163 147.9 184.3 121.8 209.5 95.8C241 63.5 279 31.4 322.2 0.399998C323.1 -0.300002 324.4 -2.14577e-06 325.1 0.899998C325.7 1.8 325.6 3 324.7 3.7C324.6 3.8 310 15.2 289 37.3C260.2 68 234.7 101.7 213 137.8C185.7 183.1 159.9 242.5 134.1 319.4L134 319.5C125.7 339.1 118.9 347.9 112.1 347.9ZM30 162.9C55.2 189.6 72 237.1 84.2 277.1C85.6 281.8 87 286.3 88.3 290.8C96.3 317.8 103.9 343.3 111.9 343.8C115.2 344 121.1 339.7 130.2 318.1C156 240.9 182 181.2 209.4 135.7C231.3 99.3 257 65.3 286.1 34.4C288.3 32.1 290.4 29.9 292.4 27.9C264.2 49.7 237.6 73.3 212.6 98.7C187.5 124.4 166.5 150.3 150 175.7C127.5 210.3 118.4 237 116.8 246.3C116.7 247.1 116 247.8 115.2 248C114.4 248.2 113.5 247.9 113 247.2C96.6 224.5 71.3 193.1 43.7 172.3C39.3 168.8 34.8 165.7 30 162.9Z" fill="white" fill-opacity="0.65"/>
    <path d="M327.2 70.2L321.8 77.5L325.9 73.7C331.6 75.8 326.3 80.3 324.7 81.7C332.8 78.6 326.5 73.9 327.2 70.2Z" fill="white" fill-opacity="0.65"/>
    <path d="M315.3 77.3C311.1 77.7 313.1 81.4 315.1 82.3C315 80.6 317.3 78.2 315.3 77.3Z" fill="white" fill-opacity="0.65"/>
    <path d="M115 234.3C116.2 233.4 117.2 232.2 118.3 232.7C117.5 231.1 116.7 230.6 115 234.3Z" fill="white" fill-opacity="0.65"/>
    <path d="M118.2 232.8L118.6 233.8V232.9L118.2 232.8Z" fill="white" fill-opacity="0.65"/>
    <path d="M198.5 183.3C198.3 178.3 201.2 177.7 202.4 173.8L207.6 175.3C209.1 171.5 205.5 171.4 205.6 167.6C210.7 167 213.9 159.5 215.3 158.4C217.8 159.2 216.5 161.7 217.2 163.1C219.2 158.6 215.6 155.3 219.8 151L220.8 151.9C227.5 137.7 243.7 127.6 257.2 116.8C256.1 117.1 255.8 116 254.9 115.4C269.8 104.5 290.6 99.1 302 83.2C292.2 86.5 272.5 86 265.6 97.4C260.2 95.2 257.2 102.8 253.5 99.1C239.1 104.8 237.2 114 226.1 122.6C223.9 123.1 223.2 120.5 221.4 119C224.1 116.2 226.4 112.7 229.6 110.4C227.2 110.9 224.8 111.7 222.5 112.7C223.5 108.6 231.3 106.6 229.6 102.3C223 111.2 207.9 119.2 204.7 129C208.8 127.4 212.1 123.2 216.3 120.5C219 120.5 222.4 119.4 223.7 121.5C217 135.2 205.7 138.8 198.1 150.9C196.1 153.7 192.6 156.8 190.3 155.7C191.3 153.5 188.5 153.5 189 151.4C187.1 156.3 195.3 157.4 189.7 161.8L183.8 155.9C188.9 163.5 177.3 162.1 178.4 169.3C174.5 168.9 175 165 177.2 161.6C173.3 164.4 177.1 167.6 174.8 170.4L170.9 163.5C174.2 170.5 165.7 168.4 162.4 169C163.7 170.2 169.5 171.5 166.3 175.2C164.3 176.4 163.4 174.6 162.2 174.4C163.5 175.6 165.2 178.6 163.9 181.5C161.5 180.8 161.8 177.8 159.8 176.4C158.7 178.6 158.2 180.6 155.5 181.2C155.1 186 158.6 182.7 159.6 186.2C154.9 191.2 152 182.8 146.3 182.5C145.9 176.4 148.1 169.7 148.2 166.4L144.7 176.2C142.5 174.3 137 180 137.3 173.8C129.7 181.7 126.4 194.3 125.1 204.2C126.5 203.3 127.8 201.9 129.3 202.8C128.9 208 125.8 206.2 123.5 206.4C123.8 210.6 128.5 211.9 131 215.3C124.1 220.8 126.4 222.7 118.7 226.9L123.4 228C118.2 231.1 125.1 234 120.8 237.7C119.7 237.7 119.1 235.5 118.5 233.8C118.7 238.4 113.3 236.5 113.8 241.1L109.6 236.4C108.6 239.7 109 245 104.9 242.1C108.9 249.3 103.9 258.9 105.5 266.8L101.5 265.5C103.8 268 102.5 271.5 101.9 275C92 257.8 78.5 242.2 62.4 232.7C59.4 229.7 50.6 230.6 45.2 229.3C48.7 234.3 51.2 232.6 55.5 236.7C57.5 240.9 54.4 246 54 250.8L56.3 246.4C63.1 248.2 56.8 250.9 63.6 251.5L57.4 256C61.6 254.8 61.4 259.9 60.5 262.3L65.7 260.6C65.3 265.1 65.5 267.6 61.8 271L65.8 268.3C63.8 271 73.2 279.9 63.7 280.1C65.2 280.5 67.8 280.2 68.4 282.5L64.2 285C66.8 287.4 69.4 290.3 67.3 292.2C65.4 291.1 63.3 291.5 61.1 291.9C66.4 304.8 76.8 287.9 82.8 299.4L79.8 300.5L84.3 302.2L82 307C88 307.2 89.5 311.3 90.9 316.6C92.8 320.8 93.6 324.4 97.5 329.1C99.9 333 114.5 336.8 121.3 331.6C128.4 327 126.2 327.1 127.4 325.6C128.4 323.3 129.1 320.9 129.2 318.4C130.5 311.9 136.7 310.7 137.6 303.4L132.7 303C138.4 298.9 144.8 281.9 156.8 280.2C154 275.2 155.7 280.4 151.9 279.6C148.6 270.2 156.5 271.4 160.3 267.9C159.2 262.5 157.5 271.2 154.7 267.8C160.3 261.2 150.3 260.1 156.1 251.7C159 251.6 157.1 254.5 158.7 256C156.1 248.4 162.3 237 165.5 227.7C172.6 218.3 181.6 204.5 191.7 196L190.3 194.9C197.1 193 196.9 186.4 202.1 182.7L198.5 183.3Z" fill="white" fill-opacity="0.65"/>
    <path d="M229.9 96L226.7 93.1L221.8 98.9C226.2 100.3 225.9 97.2 229.9 96Z" fill="white" fill-opacity="0.65"/>
    <path d="M235.1 107.4L237.2 104L232.3 107L235.1 107.4Z" fill="white" fill-opacity="0.65"/>
    <path d="M166.5 159.8L167.6 159.4L172.7 146.7L166.5 159.8Z" fill="white" fill-opacity="0.65"/>
    <path d="M111.1 232.6C109.5 230.5 111.1 228.6 110.2 226.6V233.3L111.1 232.6Z" fill="white" fill-opacity="0.65"/>
    <path d="M80.5 288.2C87.5 291.7 79.6 292.7 86.9 290.8C86.3 287.1 82.8 289.7 80.5 288.2Z" fill="white" fill-opacity="0.65"/>
    <path d="M89 302.2C89.6 300.6 88.7 299.4 87.7 298.3C84 299.8 87.8 300.6 89 302.2Z" fill="white" fill-opacity="0.65"/>
    <path d="M77.7 342C72.8 346.9 64.8 346.9 59.9 342C57.5 339.6 56.2 336.4 56.2 333.1C56.2 326.1 61.9 320.5 68.8 320.6C72.1 320.6 75.3 321.9 77.6 324.3C80 326.6 81.3 329.8 81.3 333.2C81.4 336.4 80.1 339.6 77.7 342ZM61.1 325.4C59.1 327.4 57.9 330.2 58 333.1C57.9 336 59.1 338.8 61.1 340.8C65.3 345 72.1 345.1 76.4 340.9C76.4 340.9 76.4 340.9 76.5 340.8C78.6 338.8 79.7 336 79.7 333.1C79.7 327.1 74.9 322.3 69 322.2C66 322.2 63.2 323.3 61.1 325.4ZM68.5 326.1C69.8 326 71.1 326.2 72.3 326.6C73.7 327.2 74.6 328.6 74.5 330.1C74.6 331.2 74.1 332.2 73.2 332.8C72.6 333.2 71.9 333.4 71.2 333.5C72.1 333.6 73 334.1 73.6 334.9C74.1 335.5 74.3 336.3 74.4 337V338C74.4 338.3 74.4 338.7 74.4 339C74.4 339.2 74.4 339.5 74.5 339.7L74.6 339.9H72.4V339.8V339.7V339.3V338.2C72.4 336.6 72 335.6 71.1 335C70.2 334.6 69.3 334.5 68.4 334.5H66.4V340H64V326.2H68.5V326.1ZM71.2 328.3C70.3 327.9 69.2 327.7 68.2 327.8H66.2V332.8H68.4C69.2 332.8 70 332.7 70.7 332.5C71.9 331.9 72.5 330.4 71.9 329.2C71.7 328.8 71.4 328.5 71.2 328.3Z" fill="white" fill-opacity="0.65"/>
</svg>
