<svg width="512" height="349" viewBox="0 0 512 349" fill="none" xmlns="http://www.w3.org/2000/svg">
	<g clip-path="url(#clip0_436_2)">
		<mask id="mask0_436_2" style="mask-type:luminance" maskUnits="userSpaceOnUse" x="0" y="0" width="512" height="349">
			<path d="M512 0H0V348.9H512V0Z" fill="white"/>
		</mask>
		<g mask="url(#mask0_436_2)">
			<path d="M196.137 348.887H195.737C185.337 348.287 178.838 328.287 168.338 292.887C167.038 288.487 165.637 283.887 164.237 279.187C150.637 234.487 131.138 180.287 100.938 157.587C99.9375 156.987 99.7375 155.687 100.337 154.687C100.837 153.887 101.838 153.587 102.738 153.887C103.138 153.987 112.938 156.787 130.038 169.487C156.738 189.487 181.238 219.187 197.838 241.887C200.438 232.387 208.337 208.587 230.438 174.587C247.038 148.887 268.338 122.787 293.538 96.7868C325.038 64.4868 363.038 32.3868 406.238 1.38675C407.138 0.686754 408.438 0.986754 409.138 1.88675C409.738 2.78675 409.638 3.98675 408.738 4.68675C408.638 4.78675 394.038 16.1868 373.038 38.2868C344.238 68.9868 318.738 102.687 297.038 138.787C269.738 184.087 243.938 243.487 218.138 320.387L218.037 320.487C209.737 340.087 202.937 348.887 196.137 348.887ZM114.038 163.887C139.238 190.587 156.037 238.087 168.237 278.087C169.637 282.787 171.038 287.287 172.338 291.787C180.338 318.787 187.938 344.287 195.938 344.787C199.237 344.987 205.137 340.687 214.237 319.087C240.037 241.887 266.038 182.187 293.438 136.687C315.337 100.287 341.038 66.2868 370.138 35.3868C372.338 33.0868 374.438 30.8868 376.438 28.8868C348.237 50.6868 321.638 74.2868 296.638 99.6868C271.538 125.387 250.538 151.287 234.038 176.687C211.538 211.287 202.438 237.987 200.838 247.287C200.738 248.087 200.037 248.787 199.237 248.987C198.437 249.187 197.537 248.887 197.037 248.187C180.637 225.487 155.338 194.087 127.738 173.287C123.338 169.787 118.838 166.687 114.038 163.887Z" fill="white" fill-opacity="0.5"/>
			<path d="M411.238 71.1868L405.838 78.4868L409.938 74.6868C415.638 76.7868 410.338 81.2868 408.738 82.6868C416.838 79.5868 410.538 74.8868 411.238 71.1868Z" fill="white" fill-opacity="0.5"/>
			<path d="M399.337 78.2868C395.137 78.6868 397.137 82.3868 399.137 83.2868C399.037 81.5868 401.337 79.1868 399.337 78.2868Z" fill="white" fill-opacity="0.5"/>
			<path d="M199.037 235.287C200.237 234.387 201.237 233.187 202.337 233.687C201.537 232.087 200.737 231.587 199.037 235.287Z" fill="white" fill-opacity="0.5"/>
			<path d="M202.237 233.787L202.637 234.787V233.887L202.237 233.787Z" fill="white" fill-opacity="0.5"/>
			<path d="M282.537 184.287C282.337 179.287 285.237 178.687 286.437 174.787L291.637 176.287C293.137 172.487 289.537 172.387 289.637 168.587C294.737 167.987 297.937 160.487 299.337 159.387C301.837 160.187 300.537 162.687 301.237 164.087C303.237 159.587 299.637 156.287 303.837 151.987L304.837 152.887C311.537 138.687 327.737 128.587 341.237 117.787C340.137 118.087 339.837 116.987 338.937 116.387C353.837 105.487 374.637 100.087 386.037 84.1868C376.237 87.4868 356.537 86.9868 349.637 98.3868C344.237 96.1868 341.237 103.787 337.537 100.087C323.137 105.787 321.237 114.987 310.137 123.587C307.937 124.087 307.237 121.487 305.437 119.987C308.137 117.187 310.437 113.687 313.637 111.387C311.237 111.887 308.837 112.687 306.537 113.687C307.537 109.587 315.337 107.587 313.637 103.287C307.037 112.187 291.937 120.187 288.737 129.987C292.837 128.387 296.137 124.187 300.337 121.487C303.037 121.487 306.437 120.387 307.737 122.487C301.037 136.187 289.737 139.787 282.137 151.887C280.137 154.687 276.637 157.787 274.337 156.687C275.337 154.487 272.537 154.487 273.037 152.387C271.137 157.287 279.337 158.387 273.737 162.787L267.837 156.887C272.937 164.487 261.337 163.087 262.437 170.287C258.537 169.887 259.037 165.987 261.237 162.587C257.337 165.387 261.137 168.587 258.837 171.387L254.937 164.487C258.237 171.487 249.737 169.387 246.437 169.987C247.737 171.187 253.537 172.487 250.337 176.187C248.337 177.387 247.437 175.587 246.237 175.387C247.537 176.587 249.237 179.587 247.937 182.487C245.537 181.787 245.837 178.787 243.837 177.387C242.737 179.587 242.237 181.587 239.537 182.187C239.137 186.987 242.637 183.687 243.637 187.187C238.937 192.187 236.037 183.787 230.337 183.487C229.937 177.387 232.137 170.687 232.237 167.387L228.737 177.187C226.537 175.287 221.037 180.987 221.337 174.787C213.737 182.687 210.437 195.287 209.137 205.187C210.537 204.287 211.837 202.887 213.337 203.787C212.937 208.987 209.837 207.187 207.537 207.387C207.837 211.587 212.537 212.887 215.037 216.287C208.137 221.787 210.437 223.687 202.737 227.887L207.437 228.987C202.237 232.087 209.137 234.987 204.837 238.687C203.737 238.687 203.137 236.487 202.537 234.787C202.737 239.387 197.337 237.487 197.837 242.087L193.637 237.387C192.637 240.687 193.037 245.987 188.937 243.087C192.937 250.287 187.937 259.887 189.537 267.787L185.537 266.487C187.837 268.987 186.537 272.487 185.937 275.987C176.037 258.787 162.537 243.187 146.437 233.687C143.437 230.687 134.637 231.587 129.237 230.287C132.737 235.287 135.237 233.587 139.537 237.687C141.537 241.887 138.437 246.987 138.037 251.787L140.337 247.387C147.137 249.187 140.837 251.887 147.637 252.487L141.437 256.987C145.637 255.787 145.437 260.887 144.537 263.287L149.737 261.587C149.337 266.087 149.537 268.587 145.837 271.987L149.837 269.287C147.837 271.987 157.237 280.887 147.737 281.087C149.237 281.487 151.837 281.187 152.437 283.487L148.237 285.987C150.837 288.387 153.437 291.287 151.337 293.187C149.437 292.087 147.337 292.487 145.137 292.887C150.437 305.787 160.837 288.887 166.837 300.387L163.837 301.487L168.337 303.187L166.037 307.987C172.037 308.187 173.537 312.287 174.937 317.587C176.837 321.787 177.637 325.387 181.537 330.087C183.937 333.987 198.537 337.787 205.337 332.587C212.437 327.987 210.237 328.087 211.437 326.587C212.437 324.287 213.137 321.887 213.237 319.387C214.537 312.887 220.737 311.687 221.637 304.387L216.737 303.987C222.437 299.887 228.837 282.887 240.837 281.187C238.037 276.187 239.737 281.387 235.937 280.587C232.637 271.187 240.537 272.387 244.337 268.887C243.237 263.487 241.537 272.187 238.737 268.787C244.337 262.187 234.337 261.087 240.137 252.687C243.037 252.587 241.137 255.487 242.737 256.987C240.137 249.387 246.337 237.987 249.537 228.687C256.637 219.287 265.637 205.487 275.737 196.987L274.337 195.887C281.137 193.987 280.937 187.387 286.137 183.687L282.537 184.287Z" fill="white" fill-opacity="0.5"/>
			<path d="M313.938 96.9868L310.738 94.0868L305.838 99.8868C310.238 101.287 309.938 98.1868 313.938 96.9868Z" fill="white" fill-opacity="0.5"/>
			<path d="M319.138 108.387L321.238 104.987L316.338 107.987L319.138 108.387Z" fill="white" fill-opacity="0.5"/>
			<path d="M250.537 160.787L251.637 160.387L256.737 147.687L250.537 160.787Z" fill="white" fill-opacity="0.5"/>
			<path d="M195.137 233.587C193.537 231.487 195.137 229.587 194.237 227.587V234.287L195.137 233.587Z" fill="white" fill-opacity="0.5"/>
			<path d="M164.537 289.187C171.537 292.687 163.637 293.687 170.937 291.787C170.337 288.087 166.837 290.687 164.537 289.187Z" fill="white" fill-opacity="0.5"/>
			<path d="M173.037 303.187C173.637 301.587 172.737 300.387 171.737 299.287C168.037 300.787 171.837 301.587 173.037 303.187Z" fill="white" fill-opacity="0.5"/>
			<path d="M161.737 342.987C156.837 347.887 148.837 347.887 143.937 342.987C141.537 340.587 140.237 337.387 140.237 334.087C140.237 327.087 145.937 321.487 152.837 321.587C156.137 321.587 159.337 322.887 161.637 325.287C164.037 327.587 165.337 330.787 165.337 334.187C165.437 337.387 164.137 340.587 161.737 342.987ZM145.137 326.387C143.137 328.387 141.937 331.187 142.037 334.087C141.937 336.987 143.137 339.787 145.137 341.787C149.337 345.987 156.137 346.087 160.437 341.887C160.437 341.887 160.437 341.887 160.537 341.787C162.637 339.787 163.737 336.987 163.737 334.087C163.737 328.087 158.937 323.287 153.037 323.187C150.037 323.187 147.237 324.287 145.137 326.387ZM152.537 327.087C153.837 326.987 155.137 327.187 156.337 327.587C157.737 328.187 158.637 329.587 158.537 331.087C158.637 332.187 158.137 333.187 157.237 333.787C156.637 334.187 155.937 334.387 155.237 334.487C156.137 334.587 157.037 335.087 157.637 335.887C158.137 336.487 158.337 337.287 158.437 337.987V338.987C158.437 339.287 158.437 339.687 158.437 339.987C158.437 340.187 158.437 340.487 158.537 340.687L158.637 340.887H156.437V340.787V340.687V340.287V339.187C156.437 337.587 156.037 336.587 155.137 335.987C154.237 335.587 153.337 335.487 152.437 335.487H150.437V340.987H148.037V327.187H152.537V327.087ZM155.237 329.287C154.337 328.887 153.237 328.687 152.237 328.787H150.237V333.787H152.437C153.237 333.787 154.037 333.687 154.737 333.487C155.937 332.887 156.537 331.387 155.937 330.187C155.737 329.787 155.437 329.487 155.237 329.287Z" fill="white" fill-opacity="0.5"/>
		</g>
	</g>
	<defs>
		<clipPath id="clip0_436_2">
			<rect width="512" height="349" fill="white"/>
		</clipPath>
	</defs>
</svg>
