<svg width="512" height="349" viewBox="0 0 512 349" fill="none" xmlns="http://www.w3.org/2000/svg">
    <path d="M112.1 347.9H111.7C101.3 347.3 94.8 327.3 84.3 291.9C83 287.5 81.6 282.9 80.2 278.2C66.6 233.5 47.1 179.3 16.9 156.6C15.9 156 15.7 154.7 16.3 153.7C16.8 152.9 17.8 152.6 18.7 152.9C19.1 153 28.9 155.8 46 168.5C72.7 188.5 97.2 218.2 113.8 240.9C116.4 231.4 124.3 207.6 146.4 173.6C163 147.9 184.3 121.8 209.5 95.8C241 63.5 279 31.4 322.2 0.399998C323.1 -0.300002 324.4 -2.14577e-06 325.1 0.899998C325.7 1.8 325.6 3 324.7 3.7C324.6 3.8 310 15.2 289 37.3C260.2 68 234.7 101.7 213 137.8C185.7 183.1 159.9 242.5 134.1 319.4L134 319.5C125.7 339.1 118.9 347.9 112.1 347.9ZM30 162.9C55.2 189.6 72 237.1 84.2 277.1C85.6 281.8 87 286.3 88.3 290.8C96.3 317.8 103.9 343.3 111.9 343.8C115.2 344 121.1 339.7 130.2 318.1C156 240.9 182 181.2 209.4 135.7C231.3 99.3 257 65.3 286.1 34.4C288.3 32.1 290.4 29.9 292.4 27.9C264.2 49.7 237.6 73.3 212.6 98.7C187.5 124.4 166.5 150.3 150 175.7C127.5 210.3 118.4 237 116.8 246.3C116.7 247.1 116 247.8 115.2 248C114.4 248.2 113.5 247.9 113 247.2C96.6 224.5 71.3 193.1 43.7 172.3C39.3 168.8 34.8 165.7 30 162.9Z" fill="#96C121"/>
    <path d="M327.2 70.2L321.8 77.5L325.9 73.7C331.6 75.8 326.3 80.3 324.7 81.7C332.8 78.6 326.5 73.9 327.2 70.2Z" fill="white"/>
    <path d="M315.3 77.3C311.1 77.7 313.1 81.4 315.1 82.3C315 80.6 317.3 78.2 315.3 77.3Z" fill="#96C121"/>
    <path d="M115 234.3C116.2 233.4 117.2 232.2 118.3 232.7C117.5 231.1 116.7 230.6 115 234.3Z" fill="#96C121"/>
    <path d="M118.2 232.8L118.6 233.8V232.9L118.2 232.8Z" fill="#96C121"/>
    <path d="M198.5 183.3C198.3 178.3 201.2 177.7 202.4 173.8L207.6 175.3C209.1 171.5 205.5 171.4 205.6 167.6C210.7 167 213.9 159.5 215.3 158.4C217.8 159.2 216.5 161.7 217.2 163.1C219.2 158.6 215.6 155.3 219.8 151L220.8 151.9C227.5 137.7 243.7 127.6 257.2 116.8C256.1 117.1 255.8 116 254.9 115.4C269.8 104.5 290.6 99.1 302 83.2C292.2 86.5 272.5 86 265.6 97.4C260.2 95.2 257.2 102.8 253.5 99.1C239.1 104.8 237.2 114 226.1 122.6C223.9 123.1 223.2 120.5 221.4 119C224.1 116.2 226.4 112.7 229.6 110.4C227.2 110.9 224.8 111.7 222.5 112.7C223.5 108.6 231.3 106.6 229.6 102.3C223 111.2 207.9 119.2 204.7 129C208.8 127.4 212.1 123.2 216.3 120.5C219 120.5 222.4 119.4 223.7 121.5C217 135.2 205.7 138.8 198.1 150.9C196.1 153.7 192.6 156.8 190.3 155.7C191.3 153.5 188.5 153.5 189 151.4C187.1 156.3 195.3 157.4 189.7 161.8L183.8 155.9C188.9 163.5 177.3 162.1 178.4 169.3C174.5 168.9 175 165 177.2 161.6C173.3 164.4 177.1 167.6 174.8 170.4L170.9 163.5C174.2 170.5 165.7 168.4 162.4 169C163.7 170.2 169.5 171.5 166.3 175.2C164.3 176.4 163.4 174.6 162.2 174.4C163.5 175.6 165.2 178.6 163.9 181.5C161.5 180.8 161.8 177.8 159.8 176.4C158.7 178.6 158.2 180.6 155.5 181.2C155.1 186 158.6 182.7 159.6 186.2C154.9 191.2 152 182.8 146.3 182.5C145.9 176.4 148.1 169.7 148.2 166.4L144.7 176.2C142.5 174.3 137 180 137.3 173.8C129.7 181.7 126.4 194.3 125.1 204.2C126.5 203.3 127.8 201.9 129.3 202.8C128.9 208 125.8 206.2 123.5 206.4C123.8 210.6 128.5 211.9 131 215.3C124.1 220.8 126.4 222.7 118.7 226.9L123.4 228C118.2 231.1 125.1 234 120.8 237.7C119.7 237.7 119.1 235.5 118.5 233.8C118.7 238.4 113.3 236.5 113.8 241.1L109.6 236.4C108.6 239.7 109 245 104.9 242.1C108.9 249.3 103.9 258.9 105.5 266.8L101.5 265.5C103.8 268 102.5 271.5 101.9 275C92 257.8 78.5 242.2 62.4 232.7C59.4 229.7 50.6 230.6 45.2 229.3C48.7 234.3 51.2 232.6 55.5 236.7C57.5 240.9 54.4 246 54 250.8L56.3 246.4C63.1 248.2 56.8 250.9 63.6 251.5L57.4 256C61.6 254.8 61.4 259.9 60.5 262.3L65.7 260.6C65.3 265.1 65.5 267.6 61.8 271L65.8 268.3C63.8 271 73.2 279.9 63.7 280.1C65.2 280.5 67.8 280.2 68.4 282.5L64.2 285C66.8 287.4 69.4 290.3 67.3 292.2C65.4 291.1 63.3 291.5 61.1 291.9C66.4 304.8 76.8 287.9 82.8 299.4L79.8 300.5L84.3 302.2L82 307C88 307.2 89.5 311.3 90.9 316.6C92.8 320.8 93.6 324.4 97.5 329.1C99.9 333 114.5 336.8 121.3 331.6C128.4 327 126.2 327.1 127.4 325.6C128.4 323.3 129.1 320.9 129.2 318.4C130.5 311.9 136.7 310.7 137.6 303.4L132.7 303C138.4 298.9 144.8 281.9 156.8 280.2C154 275.2 155.7 280.4 151.9 279.6C148.6 270.2 156.5 271.4 160.3 267.9C159.2 262.5 157.5 271.2 154.7 267.8C160.3 261.2 150.3 260.1 156.1 251.7C159 251.6 157.1 254.5 158.7 256C156.1 248.4 162.3 237 165.5 227.7C172.6 218.3 181.6 204.5 191.7 196L190.3 194.9C197.1 193 196.9 186.4 202.1 182.7L198.5 183.3Z" fill="#96C121"/>
    <path d="M229.9 96L226.7 93.1L221.8 98.9C226.2 100.3 225.9 97.2 229.9 96Z" fill="#96C121"/>
    <path d="M235.1 107.4L237.2 104L232.3 107L235.1 107.4Z" fill="#96C121"/>
    <path d="M166.5 159.8L167.6 159.4L172.7 146.7L166.5 159.8Z" fill="#96C121"/>
    <path d="M111.1 232.6C109.5 230.5 111.1 228.6 110.2 226.6V233.3L111.1 232.6Z" fill="#96C121"/>
    <path d="M80.5 288.2C87.5 291.7 79.6 292.7 86.9 290.8C86.3 287.1 82.8 289.7 80.5 288.2Z" fill="#96C121"/>
    <path d="M89 302.2C89.6 300.6 88.7 299.4 87.7 298.3C84 299.8 87.8 300.6 89 302.2Z" fill="#96C121"/>
    <path d="M77.7 342C72.8 346.9 64.8 346.9 59.9 342C57.5 339.6 56.2 336.4 56.2 333.1C56.2 326.1 61.9 320.5 68.8 320.6C72.1 320.6 75.3 321.9 77.6 324.3C80 326.6 81.3 329.8 81.3 333.2C81.4 336.4 80.1 339.6 77.7 342ZM61.1 325.4C59.1 327.4 57.9 330.2 58 333.1C57.9 336 59.1 338.8 61.1 340.8C65.3 345 72.1 345.1 76.4 340.9C76.4 340.9 76.4 340.9 76.5 340.8C78.6 338.8 79.7 336 79.7 333.1C79.7 327.1 74.9 322.3 69 322.2C66 322.2 63.2 323.3 61.1 325.4ZM68.5 326.1C69.8 326 71.1 326.2 72.3 326.6C73.7 327.2 74.6 328.6 74.5 330.1C74.6 331.2 74.1 332.2 73.2 332.8C72.6 333.2 71.9 333.4 71.2 333.5C72.1 333.6 73 334.1 73.6 334.9C74.1 335.5 74.3 336.3 74.4 337V338C74.4 338.3 74.4 338.7 74.4 339C74.4 339.2 74.4 339.5 74.5 339.7L74.6 339.9H72.4V339.8V339.7V339.3V338.2C72.4 336.6 72 335.6 71.1 335C70.2 334.6 69.3 334.5 68.4 334.5H66.4V340H64V326.2H68.5V326.1ZM71.2 328.3C70.3 327.9 69.2 327.7 68.2 327.8H66.2V332.8H68.4C69.2 332.8 70 332.7 70.7 332.5C71.9 331.9 72.5 330.4 71.9 329.2C71.7 328.8 71.4 328.5 71.2 328.3Z" fill="#96C121"/>
    <path d="M212.272 299.937H175.076C174.264 304.025 174.914 307.225 177.025 309.536C179.137 311.846 183.035 312.913 188.395 312.913C191.969 312.913 195.542 312.202 198.791 310.958C201.877 309.891 204.801 308.469 207.562 306.869H209.349L205.613 320.556C201.877 321.978 198.141 323.045 194.405 323.934C190.832 324.645 187.096 325 183.36 325C173.289 325 166.142 322.689 161.919 317.89C157.859 313.091 156.884 306.336 159.32 297.449C161.432 289.094 166.142 281.629 172.64 276.652C179.462 271.497 187.421 268.831 195.705 269.008C203.989 269.008 209.511 271.141 212.435 275.585C215.359 280.029 215.846 286.25 213.572 294.427L212.272 299.937ZM198.791 289.983C199.603 286.428 199.603 283.762 198.466 281.984C197.329 280.207 195.055 279.318 191.806 279.318C188.883 279.318 185.959 280.207 183.36 281.806C180.761 283.762 178.812 286.606 177.837 289.983H198.791Z" fill="#95C13D"/>
    <path d="M269.706 298.6C268.085 306.6 264.303 313 258.359 317.8C252.416 322.6 244.987 325 236.342 325C232.02 325 227.832 324.4 223.645 323C220.673 322 217.837 320.6 215 318.8L219.052 298.6H220.673C221.349 299.4 222.159 300.4 223.105 301.4C224.455 302.8 225.806 303.8 227.292 304.8C229.048 306 230.939 306.8 232.83 307.6C235.126 308.4 237.558 308.8 239.989 308.8C242.691 309 245.392 308.4 247.824 307.2C249.444 306.6 250.66 304.8 251.2 302.4C251.606 301 251.336 299.4 250.525 298.4C248.904 297.2 247.283 296.4 245.527 296C244.312 295.6 242.691 295.2 240.529 294.6C238.638 294.2 236.747 293.6 234.856 292.8C230.264 291 227.157 288.2 225.536 284.2C223.915 280.2 223.645 275.6 224.861 269.8C226.346 262.4 229.993 256.2 235.937 251.4C241.88 246.6 249.174 244 257.684 244C261.466 244 265.248 244.6 269.03 245.8C271.732 246.6 274.434 247.8 277 249.6L273.083 269H271.597C269.301 266.4 266.734 264.2 264.033 262.8C260.926 261.2 257.684 260.4 254.442 260.4C251.876 260.4 249.444 260.8 247.013 262C244.852 263 243.636 264.6 243.231 266.6C242.826 268 242.961 269.6 243.771 270.8C244.447 271.8 246.338 272.8 249.309 273.6C250.93 274.2 252.821 274.6 254.712 275C256.603 275.4 258.63 276 260.521 276.8C264.708 278.4 267.545 281.2 269.03 284.8C270.516 288.4 270.786 293.2 269.706 298.6Z" fill="#95C13D"/>
    <path d="M454.294 302.074C452.804 307.506 449.327 311.852 443.863 315.111C438.399 318.37 431.569 320 423.621 320C419.647 320 415.797 319.593 411.948 318.642C409.216 317.963 406.608 317.012 404 315.79L407.725 302.074H409.216C409.837 302.617 410.582 303.296 411.451 303.975C412.693 304.926 413.935 305.605 415.301 306.284C416.915 307.099 418.654 307.642 420.392 308.185C422.503 308.728 424.739 309 426.974 309C429.457 309.136 431.941 308.728 434.176 307.914C435.667 307.506 436.784 306.284 437.281 304.654C437.654 303.704 437.405 302.617 436.66 301.938C435.17 301.123 433.68 300.58 432.065 300.309C430.948 300.037 429.458 299.765 427.471 299.358C425.732 299.086 423.993 298.679 422.255 298.136C418.033 296.914 415.176 295.012 413.686 292.296C412.196 289.58 411.948 286.457 413.065 282.519C414.431 277.494 417.784 273.284 423.248 270.025C428.712 266.765 435.418 265 443.242 265C446.719 265 450.196 265.407 453.673 266.222C456.157 266.765 458.641 267.58 461 268.802L457.399 281.975H456.033C453.922 280.21 451.562 278.716 449.078 277.765C446.222 276.679 443.242 276.136 440.261 276.136C437.902 276.136 435.667 276.407 433.431 277.222C431.444 277.901 430.327 278.988 429.954 280.346C429.582 281.296 429.706 282.383 430.451 283.198C431.072 283.877 432.81 284.556 435.542 285.099C437.033 285.506 438.771 285.778 440.51 286.049C442.248 286.321 444.111 286.728 445.85 287.272C449.699 288.358 452.307 290.259 453.673 292.704C455.039 295.148 455.288 298.407 454.294 302.074Z" fill="#95C13D"/>
    <path d="M291.234 321H277L289.579 276.216H303.814L291.234 321ZM305.91 269.934H290.903L293.993 259H309L305.91 269.934Z" fill="#95C13D"/>
    <path d="M333.56 318.732C331.909 319.078 330.148 319.423 328.497 319.654C326.405 319.885 324.313 320 322.112 320C316.607 320 312.865 318.847 310.773 316.656C308.681 314.465 308.461 310.545 310.002 305.125L315.837 284.37H310.002L312.754 274.684H318.589L322.112 262H336.313L332.79 274.684H346L343.248 284.37H330.038L325.634 300.052C325.194 301.666 324.864 302.934 324.534 304.087C324.203 305.125 324.203 306.163 324.313 307.201C324.423 308.123 324.864 308.93 325.634 309.392C326.845 310.084 328.166 310.314 329.487 310.199C330.478 310.199 331.469 309.968 332.46 309.738C333.45 309.507 334.331 309.276 335.212 308.815H336.423L333.56 318.732Z" fill="#95C13D"/>
    <path d="M401.225 295.385H363.376C362.549 299.4 363.21 302.542 365.359 304.812C367.508 307.081 371.474 308.129 376.929 308.129C380.565 308.129 384.201 307.43 387.506 306.208C390.647 305.161 393.622 303.764 396.432 302.193H398.25L394.448 315.636C390.647 317.032 386.845 318.08 383.044 318.953C379.408 319.651 375.606 320 371.805 320C361.558 320 354.285 317.73 349.988 313.017C345.856 308.303 344.864 301.669 347.344 292.941C349.492 284.735 354.285 277.403 360.896 272.515C367.838 267.452 375.937 264.834 384.366 265.008C392.795 265.008 398.415 267.103 401.39 271.468C404.365 275.832 404.861 281.942 402.547 289.973L401.225 295.385ZM387.506 285.608C388.333 282.117 388.333 279.498 387.176 277.752C386.019 276.007 383.705 275.134 380.399 275.134C377.424 275.134 374.449 276.007 371.805 277.578C369.16 279.498 367.177 282.291 366.185 285.608H387.506Z" fill="#95C13D"/>
</svg>
