<svg width="512" height="349" viewBox="0 0 512 349" fill="none" xmlns="http://www.w3.org/2000/svg">
    <path d="M112.1 347.9H111.7C101.3 347.3 94.8 327.3 84.3 291.9C83 287.5 81.6 282.9 80.2 278.2C66.6 233.5 47.1 179.3 16.9 156.6C15.9 156 15.7 154.7 16.3 153.7C16.8 152.9 17.8 152.6 18.7 152.9C19.1 153 28.9 155.8 46 168.5C72.7 188.5 97.2 218.2 113.8 240.9C116.4 231.4 124.3 207.6 146.4 173.6C163 147.9 184.3 121.8 209.5 95.8001C241 63.5001 279 31.4001 322.2 0.400059C323.1 -0.299941 324.4 5.87702e-05 325.1 0.900059C325.7 1.80006 325.6 3.00006 324.7 3.70006C324.6 3.80006 310 15.2001 289 37.3001C260.2 68.0001 234.7 101.7 213 137.8C185.7 183.1 159.9 242.5 134.1 319.4L134 319.5C125.7 339.1 118.9 347.9 112.1 347.9ZM30 162.9C55.2 189.6 72 237.1 84.2 277.1C85.6 281.8 87 286.3 88.3 290.8C96.3 317.8 103.9 343.3 111.9 343.8C115.2 344 121.1 339.7 130.2 318.1C156 240.9 182 181.2 209.4 135.7C231.3 99.3001 257 65.3001 286.1 34.4001C288.3 32.1001 290.4 29.9001 292.4 27.9001C264.2 49.7001 237.6 73.3001 212.6 98.7001C187.5 124.4 166.5 150.3 150 175.7C127.5 210.3 118.4 237 116.8 246.3C116.7 247.1 116 247.8 115.2 248C114.4 248.2 113.5 247.9 113 247.2C96.6 224.5 71.3 193.1 43.7 172.3C39.3 168.8 34.8 165.7 30 162.9Z" fill="white" fill-opacity="0.65"/>
    <path d="M327.2 70.2L321.8 77.5L325.9 73.7C331.6 75.8 326.3 80.3 324.7 81.7C332.8 78.6 326.5 73.9 327.2 70.2Z" fill="white" fill-opacity="0.65"/>
    <path d="M315.3 77.3C311.1 77.7 313.1 81.4 315.1 82.3C315 80.6 317.3 78.2 315.3 77.3Z" fill="white" fill-opacity="0.65"/>
    <path d="M115 234.3C116.2 233.4 117.2 232.2 118.3 232.7C117.5 231.1 116.7 230.6 115 234.3Z" fill="white" fill-opacity="0.65"/>
    <path d="M118.2 232.8L118.6 233.8V232.9L118.2 232.8Z" fill="white" fill-opacity="0.65"/>
    <path d="M198.5 183.3C198.3 178.3 201.2 177.7 202.4 173.8L207.6 175.3C209.1 171.5 205.5 171.4 205.6 167.6C210.7 167 213.9 159.5 215.3 158.4C217.8 159.2 216.5 161.7 217.2 163.1C219.2 158.6 215.6 155.3 219.8 151L220.8 151.9C227.5 137.7 243.7 127.6 257.2 116.8C256.1 117.1 255.8 116 254.9 115.4C269.8 104.5 290.6 99.1 302 83.2C292.2 86.5 272.5 86 265.6 97.4C260.2 95.2 257.2 102.8 253.5 99.1C239.1 104.8 237.2 114 226.1 122.6C223.9 123.1 223.2 120.5 221.4 119C224.1 116.2 226.4 112.7 229.6 110.4C227.2 110.9 224.8 111.7 222.5 112.7C223.5 108.6 231.3 106.6 229.6 102.3C223 111.2 207.9 119.2 204.7 129C208.8 127.4 212.1 123.2 216.3 120.5C219 120.5 222.4 119.4 223.7 121.5C217 135.2 205.7 138.8 198.1 150.9C196.1 153.7 192.6 156.8 190.3 155.7C191.3 153.5 188.5 153.5 189 151.4C187.1 156.3 195.3 157.4 189.7 161.8L183.8 155.9C188.9 163.5 177.3 162.1 178.4 169.3C174.5 168.9 175 165 177.2 161.6C173.3 164.4 177.1 167.6 174.8 170.4L170.9 163.5C174.2 170.5 165.7 168.4 162.4 169C163.7 170.2 169.5 171.5 166.3 175.2C164.3 176.4 163.4 174.6 162.2 174.4C163.5 175.6 165.2 178.6 163.9 181.5C161.5 180.8 161.8 177.8 159.8 176.4C158.7 178.6 158.2 180.6 155.5 181.2C155.1 186 158.6 182.7 159.6 186.2C154.9 191.2 152 182.8 146.3 182.5C145.9 176.4 148.1 169.7 148.2 166.4L144.7 176.2C142.5 174.3 137 180 137.3 173.8C129.7 181.7 126.4 194.3 125.1 204.2C126.5 203.3 127.8 201.9 129.3 202.8C128.9 208 125.8 206.2 123.5 206.4C123.8 210.6 128.5 211.9 131 215.3C124.1 220.8 126.4 222.7 118.7 226.9L123.4 228C118.2 231.1 125.1 234 120.8 237.7C119.7 237.7 119.1 235.5 118.5 233.8C118.7 238.4 113.3 236.5 113.8 241.1L109.6 236.4C108.6 239.7 109 245 104.9 242.1C108.9 249.3 103.9 258.9 105.5 266.8L101.5 265.5C103.8 268 102.5 271.5 101.9 275C92 257.8 78.5 242.2 62.4 232.7C59.4 229.7 50.6 230.6 45.2 229.3C48.7 234.3 51.2 232.6 55.5 236.7C57.5 240.9 54.4 246 54 250.8L56.3 246.4C63.1 248.2 56.8 250.9 63.6 251.5L57.4 256C61.6 254.8 61.4 259.9 60.5 262.3L65.7 260.6C65.3 265.1 65.5 267.6 61.8 271L65.8 268.3C63.8 271 73.2 279.9 63.7 280.1C65.2 280.5 67.8 280.2 68.4 282.5L64.2 285C66.8 287.4 69.4 290.3 67.3 292.2C65.4 291.1 63.3 291.5 61.1 291.9C66.4 304.8 76.8 287.9 82.8 299.4L79.8 300.5L84.3 302.2L82 307C88 307.2 89.5 311.3 90.9 316.6C92.8 320.8 93.6 324.4 97.5 329.1C99.9 333 114.5 336.8 121.3 331.6C128.4 327 126.2 327.1 127.4 325.6C128.4 323.3 129.1 320.9 129.2 318.4C130.5 311.9 136.7 310.7 137.6 303.4L132.7 303C138.4 298.9 144.8 281.9 156.8 280.2C154 275.2 155.7 280.4 151.9 279.6C148.6 270.2 156.5 271.4 160.3 267.9C159.2 262.5 157.5 271.2 154.7 267.8C160.3 261.2 150.3 260.1 156.1 251.7C159 251.6 157.1 254.5 158.7 256C156.1 248.4 162.3 237 165.5 227.7C172.6 218.3 181.6 204.5 191.7 196L190.3 194.9C197.1 193 196.9 186.4 202.1 182.7L198.5 183.3Z" fill="white" fill-opacity="0.65"/>
    <path d="M229.9 96L226.7 93.1L221.8 98.9C226.2 100.3 225.9 97.2 229.9 96Z" fill="white" fill-opacity="0.65"/>
    <path d="M235.1 107.4L237.2 104L232.3 107L235.1 107.4Z" fill="white" fill-opacity="0.65"/>
    <path d="M166.5 159.8L167.6 159.4L172.7 146.7L166.5 159.8Z" fill="white" fill-opacity="0.65"/>
    <path d="M111.1 232.6C109.5 230.5 111.1 228.6 110.2 226.6V233.3L111.1 232.6Z" fill="white" fill-opacity="0.65"/>
    <path d="M80.5 288.2C87.5 291.7 79.6 292.7 86.9 290.8C86.3 287.1 82.8 289.7 80.5 288.2Z" fill="white" fill-opacity="0.65"/>
    <path d="M89 302.2C89.6 300.6 88.7 299.4 87.7 298.3C84 299.8 87.8 300.6 89 302.2Z" fill="white" fill-opacity="0.65"/>
    <path d="M77.7 342C72.8 346.9 64.8 346.9 59.9 342C57.5 339.6 56.2 336.4 56.2 333.1C56.2 326.1 61.9 320.5 68.8 320.6C72.1 320.6 75.3 321.9 77.6 324.3C80 326.6 81.3 329.8 81.3 333.2C81.4 336.4 80.1 339.6 77.7 342ZM61.1 325.4C59.1 327.4 57.9 330.2 58 333.1C57.9 336 59.1 338.8 61.1 340.8C65.3 345 72.1 345.1 76.4 340.9C76.4 340.9 76.4 340.9 76.5 340.8C78.6 338.8 79.7 336 79.7 333.1C79.7 327.1 74.9 322.3 69 322.2C66 322.2 63.2 323.3 61.1 325.4ZM68.5 326.1C69.8 326 71.1 326.2 72.3 326.6C73.7 327.2 74.6 328.6 74.5 330.1C74.6 331.2 74.1 332.2 73.2 332.8C72.6 333.2 71.9 333.4 71.2 333.5C72.1 333.6 73 334.1 73.6 334.9C74.1 335.5 74.3 336.3 74.4 337V338C74.4 338.3 74.4 338.7 74.4 339C74.4 339.2 74.4 339.5 74.5 339.7L74.6 339.9H72.4V339.8V339.7V339.3V338.2C72.4 336.6 72 335.6 71.1 335C70.2 334.6 69.3 334.5 68.4 334.5H66.4V340H64V326.2H68.5V326.1ZM71.2 328.3C70.3 327.9 69.2 327.7 68.2 327.8H66.2V332.8H68.4C69.2 332.8 70 332.7 70.7 332.5C71.9 331.9 72.5 330.4 71.9 329.2C71.7 328.8 71.4 328.5 71.2 328.3Z" fill="white" fill-opacity="0.65"/>
    <path d="M260.706 294.6C259.085 302.6 255.303 309 249.359 313.8C243.416 318.6 235.987 321 227.342 321C223.02 321 218.832 320.4 214.645 319C211.673 318 208.837 316.6 206 314.8L210.052 294.6H211.673C212.349 295.4 213.159 296.4 214.105 297.4C215.455 298.8 216.806 299.8 218.292 300.8C220.048 302 221.939 302.8 223.83 303.6C226.126 304.4 228.558 304.8 230.989 304.8C233.691 305 236.392 304.4 238.824 303.2C240.444 302.6 241.66 300.8 242.2 298.4C242.606 297 242.336 295.4 241.525 294.4C239.904 293.2 238.283 292.4 236.527 292C235.312 291.6 233.691 291.2 231.529 290.6C229.638 290.2 227.747 289.6 225.856 288.8C221.264 287 218.157 284.2 216.536 280.2C214.915 276.2 214.645 271.6 215.861 265.8C217.346 258.4 220.993 252.2 226.937 247.4C232.88 242.6 240.174 240 248.684 240C252.466 240 256.248 240.6 260.03 241.8C262.732 242.6 265.434 243.8 268 245.6L264.083 265H262.597C260.301 262.4 257.734 260.2 255.033 258.8C251.926 257.2 248.684 256.4 245.442 256.4C242.876 256.4 240.444 256.8 238.013 258C235.852 259 234.636 260.6 234.231 262.6C233.826 264 233.961 265.6 234.771 266.8C235.447 267.8 237.338 268.8 240.309 269.6C241.93 270.2 243.821 270.6 245.712 271C247.603 271.4 249.63 272 251.521 272.8C255.708 274.4 258.545 277.2 260.03 280.8C261.516 284.4 261.786 289.2 260.706 294.6Z" fill="white" fill-opacity="0.65"/>
    <path d="M273.234 319H259L271.579 274.216H285.814L273.234 319ZM287.91 267.934H272.903L275.993 257H291L287.91 267.934Z" fill="white" fill-opacity="0.65"/>
    <path d="M316.56 316.732C314.909 317.078 313.148 317.423 311.497 317.654C309.405 317.885 307.313 318 305.112 318C299.607 318 295.865 316.847 293.773 314.656C291.681 312.465 291.461 308.545 293.002 303.125L298.837 282.37H293.002L295.754 272.684H301.589L305.112 260H319.313L315.79 272.684H329L326.248 282.37H313.038L308.634 298.052C308.194 299.666 307.864 300.934 307.534 302.087C307.203 303.125 307.203 304.163 307.313 305.201C307.423 306.123 307.864 306.93 308.634 307.392C309.845 308.084 311.166 308.314 312.487 308.199C313.478 308.199 314.469 307.968 315.46 307.738C316.45 307.507 317.331 307.276 318.212 306.815H319.423L316.56 316.732Z" fill="white" fill-opacity="0.65"/>
    <path d="M371.655 298.308H339.68C338.981 301.52 339.54 304.034 341.355 305.85C343.171 307.665 346.521 308.503 351.13 308.503C354.201 308.503 357.273 307.944 360.065 306.966C362.719 306.129 365.232 305.011 367.606 303.754H369.142L365.93 314.509C362.719 315.626 359.507 316.464 356.296 317.162C353.224 317.721 350.012 318 346.801 318C338.144 318 331.999 316.184 328.369 312.414C324.878 308.642 324.04 303.335 326.136 296.353C327.95 289.788 331.999 283.923 337.585 280.012C343.449 275.962 350.292 273.867 357.413 274.007C364.534 274.007 369.282 275.683 371.795 279.174C374.308 282.666 374.727 287.554 372.772 293.978L371.655 298.308ZM360.065 290.486C360.764 287.694 360.764 285.598 359.787 284.202C358.809 282.806 356.854 282.107 354.061 282.107C351.548 282.107 349.034 282.806 346.801 284.062C344.566 285.598 342.891 287.833 342.053 290.486H360.065Z" fill="white" fill-opacity="0.65"/>
    <path d="M203.655 301.308H171.68C170.981 304.52 171.54 307.034 173.355 308.85C175.171 310.665 178.521 311.503 183.13 311.503C186.201 311.503 189.273 310.944 192.065 309.966C194.719 309.129 197.232 308.011 199.606 306.754H201.142L197.93 317.509C194.719 318.626 191.507 319.464 188.296 320.162C185.224 320.721 182.012 321 178.801 321C170.144 321 163.999 319.184 160.369 315.414C156.878 311.642 156.04 306.335 158.136 299.353C159.95 292.788 163.999 286.923 169.585 283.012C175.449 278.962 182.292 276.867 189.413 277.007C196.534 277.007 201.282 278.683 203.795 282.174C206.308 285.666 206.727 290.554 204.772 296.978L203.655 301.308ZM192.065 293.486C192.764 290.694 192.764 288.598 191.787 287.202C190.809 285.806 188.854 285.107 186.061 285.107C183.548 285.107 181.034 285.806 178.801 287.062C176.566 288.598 174.891 290.833 174.053 293.486H192.065Z" fill="white" fill-opacity="0.65"/>
</svg>
